<?xml version="1.0" encoding="utf-8"?>
<!-- Generator: Adobe Illustrator 24.0.1, SVG Export Plug-In . SVG Version: 6.00 Build 0)  -->
<svg version="1.1" id="Layer_1" xmlns="http://www.w3.org/2000/svg" xmlns:xlink="http://www.w3.org/1999/xlink" x="0px" y="0px"
	 viewBox="0 0 512 512" style="enable-background:new 0 0 512 512;" xml:space="preserve">
<style type="text/css">
	.st0{fill:#FFFFFF;}
</style>
<path class="st0" d="M192,245.3c-58.8,0-106.7-47.8-106.7-106.7S133.2,32,192,32s106.7,47.9,106.7,106.7S250.8,245.3,192,245.3z
	 M192,64c-41.2,0-74.7,33.5-74.7,74.7c0,41.2,33.5,74.7,74.7,74.7s74.7-33.5,74.7-74.7C266.7,97.5,233.2,64,192,64z"/>
<path class="st0" d="M368,480H16c-8.8,0-16-7.2-16-16v-74.7C0,333.5,45.5,288,101.3,288h181.3c55.9,0,101.3,45.5,101.3,101.3V464
	C384,472.8,376.8,480,368,480z M32,448h320v-58.7c0-38.2-31.1-69.3-69.3-69.3H101.3C63.1,320,32,351.1,32,389.3V448z"/>
<path class="st0" d="M496,250.7H314.7c-8.8,0-16-7.2-16-16s7.2-16,16-16H496c8.8,0,16,7.2,16,16S504.8,250.7,496,250.7z"/>
<path class="st0" d="M410.7,336c-4.1,0-8.2-1.6-11.3-4.7c-6.2-6.3-6.2-16.4,0-22.6l74-74l-74-74c-6.2-6.2-6.2-16.4,0-22.6
	c6.2-6.2,16.4-6.2,22.6,0l85.3,85.3c6.2,6.2,6.2,16.4,0,22.6L422,331.3C418.8,334.4,414.7,336,410.7,336z"/>
</svg>
