<?xml version="1.0" encoding="utf-8"?>
<!-- Generator: Adobe Illustrator 24.0.1, SVG Export Plug-In . SVG Version: 6.00 Build 0)  -->
<svg version="1.1" id="Contours" xmlns="http://www.w3.org/2000/svg" xmlns:xlink="http://www.w3.org/1999/xlink" x="0px" y="0px"
	 viewBox="0 0 1244.1 1418.3" style="enable-background:new 0 0 1244.1 1418.3;" xml:space="preserve">
<style type="text/css">
	.st0{fill:#EF3911;stroke:#EF3911;stroke-width:18;stroke-linejoin:round;stroke-miterlimit:10;}
	.st1{fill:#882B13;stroke:#000000;stroke-width:48;stroke-linejoin:round;stroke-miterlimit:10;}
	.st2{fill:#231F20;}
	.st3{fill:#882B13;}
	.st4{fill:#BD9638;}
	.st5{fill:#EF3911;}
	.st6{fill:#F27814;}
	.st7{fill:#FFDA00;}
	.st8{fill:#00AD61;}
	.st9{fill:#1A6711;}
	.st10{fill:#1157B1;}
	.st11{fill:#447E79;}
	.st12{fill:#FFFFFF;}
</style>
<g>
	<path class="st0" d="M610.7,147.3c59.6,42.7,11.8-123.6,5.8-121.4C621.2,62.6,601.8,121.6,610.7,147.3z"/>
	<path class="st0" d="M170.9,600.7c84.1-46.7-133.3-9.1-138-12.5C51.4,616.6,133.4,590.6,170.9,600.7z"/>
	<path class="st0" d="M275.8,270.1c-15.4-11.6-108.2-72.5-104.7-57.2C176.9,252.6,346.8,349.5,275.8,270.1z"/>
	<path class="st0" d="M206.4,677.2c-28.5-37.7-311.1,111.8-85,33.1C142.7,698.9,216.1,707.3,206.4,677.2z"/>
	<path class="st0" d="M1200.2,524.3c-29.6,2.7-112.6-7.2-134.2-0.2C1031.5,571.7,1256.4,538.3,1200.2,524.3z"/>
	<path class="st0" d="M1164.4,829.3c-38.3-20.4-142.4-105-144.6-67.3C1028.4,779.8,1237.5,882.1,1164.4,829.3z"/>
	<path class="st0" d="M195.4,800.1c-23.7,20.6-115.7,66.1-66.6,55.8C330.7,775.5,229.1,749.4,195.4,800.1z"/>
	<path class="st0" d="M955.3,301.7c30.2,23.7,103-71.5,121.1-77.4C1122.4,174.4,934.1,298.4,955.3,301.7z"/>
	<path class="st0" d="M1176.7,669.7c-28.4-16.1-123.8-47.1-109.4-11.5C1097.4,667.2,1161.2,674.8,1176.7,669.7z"/>
	<path class="st0" d="M114,405.9c24.3,11.5,112.2,49.7,82.1,6.2C172.4,404.2,62.1,382,114,405.9z"/>
	<path class="st0" d="M432,185.1c42.1,0.7-38-79.1-45.7-89.5C361.4,71.4,413.7,171.2,432,185.1z"/>
	<path class="st0" d="M1036.2,414.1c28.6,4,97.9-44.7,102.8-51.7C1110.5,356.1,1029.2,404.7,1036.2,414.1z"/>
	<path class="st0" d="M824.1,182.1c12.8-7.8,34.3-70.9,22.8-74.9C833,127.6,779.3,191.2,824.1,182.1z"/>
</g>
<g>
	<path class="st1" d="M1028,609.7c34.2-465.9-600.8-582.4-782.1-150.2c-18.2,59.2,27.6,62.3,0,64.7c-27.9,13.6-9.6,111.4-1.7,129.8
		c21.5,166.8,110.9,18.2,68.1,256c-0.1,72.2,82.4,68.8,94.5,88.2c-10.9,34.2-26.8,113-17.9,160c6.4,48.6,33.6,39,87.3,79.8
		c102.7,80.5,174.9,177,237.2,103.6c240.5-266.1,225.1-111.4,181.5-323.6c-28.6-86.4,159.5-59.4,60.2-229.4
		C950.6,765.2,1059.3,665.2,1028,609.7z M431,277.2c-1.4,0.8-2.8,1.6-4.2,2.3C428.1,278.7,429.5,277.9,431,277.2z"/>
</g>
<g>
	<path class="st2" d="M890.6,886.6C890.6,886.6,890.6,886.7,890.6,886.6L890.6,886.6z"/>
	<path class="st2" d="M892.3,867.7C892.3,867.7,892.4,867.8,892.3,867.7L892.3,867.7z"/>
	<path class="st2" d="M979.3,906.7c-21.5,22.2-58.3-17.4-32.3-67.1c4.5-4,8.6-12,16.7-13.6c6.3-0.2,14.7-7.9,2-7.4
		c-9.3,2.1-24.6,21-26.8-3.7c0.1-1.3-5.2-23.5-8.8-11.1c-0.5,5.2,6,13.1-0.8,17.9c-27.7,4.5-105.9,12.8-37.1,46.2
		c12.4,7.2,18,8.3-1.7,18.9c-26.6,17.7-54.2,49.1,11.7,39.1c11.1-14.5-85.9,12.8,9.4-44.6c15.5-9.2,43.5,10.4,8.4,44.7
		c-6.2,34.7-11.5,37.5-54.2,39.1c-21-4.8-134.2-31-127.2,13.2c21.2-6.4,35.7-36.2,52.6-7c-0.5-0.1,32.1-8.7,28.7,1.8
		c-7.7,20.7,36-22.7,43.2,17.8c-6.6,32.7-39.3,34.7-21.1,74.8c5.8,19.6-10.4,5.6,5.6,38.1c2.4,3.3,0,18.2-6.5,24.3
		c-11.8,11-26.7,19.9-45.7,18.7c-10.2,12.2-12.9,8-29.9,9.8c-7.4,11.6-11.6,9.4-27,12.6c-10.6,17-15.6,4.5-30.7,7.5
		c0.3,12.5-34.8,23.8-52.3,17.4c-7.5,6.6-18.9,20-24.7-0.7c-27.5,28.7-25.4-15.4-33.4-34.9c39.9,0,8.9-39,8-21.2
		c-2,1.3-4.9,3-6.5,6.9c1.2-1.2-7.5-2-7.8-0.4c-16.4-8.9-6.4-16.2-13-30.2c0-6.7,4-15.7,0.8-21.7c17.3-4.2,9.1-11.8,32.8-1.1
		c27.5-18,34.3-2.6,38,27.4c-0.8,0.3-1.1,0.9-0.5,3.9c-0.7-0.6-2.7,6.1-1.2,9.7c0.8,0.6,0,0.1,2.3,0.2
		c-9.8,15.8-27.8,32.9,15.4,21.9c-15.9-4-21.1-91.6,12.9-72.4c21.7,29.8,5.6-10.9,40.6-0.2c6.1,2.1,10.6-5.4,17.6-6.2
		c4.7-0.8,9.3,1.4,13.6,5.3c9.3,4.1,1.7,26.7,4.9,44.5c17,15.5,14.7-16.3,7.7-28.8c-10-16.8,10.9-43.4,22.2-17.1
		c-2.6,11.1-0.8,24.5,3.7,37.3c2.2,17.7,26.8-12.7,9.1-29.9c-10.2-22.9,42.2-48.6,15.7-43.1c-27.5,16.6-63.5,31.4-100.4,27.3
		c-12.1,0.3-20.5,11.3-38.7,3c-24.6,0.4-51.2,9.9-76.2,0.2c-14.9-3.7-11.1,11.7-33.9-0.7c-17.6-1.4-9.2,9.6-31.5-7.4
		c-8.8-3-17.4,12.9-25.2-1.1c-11.9-18-36.5-17.2-55-23.9c-12.1-13.4-39.7-62.3,4.8-53c18.4-2.1-10.2-11.3,5.1-15.8
		c12.6-4.8,24.5,9.4,35.5,9c-20.2-32.9,20.5-9.2,36.5,0.2c24.2,2-26.9-38.1-81.3-17.9c-13.9,4.5-25.8,15.7-38.6,25.3
		c-12.2-2-17.4,5.5,0.3,17.7c-1.4,32.7-0.1,60.9,2.2,95c0.1-19.5,0.1-39.4,0.1-59.3c2.8,28.4-9.9,83.6,19.7,106.2
		c8.9,5,28.6,14.2,41,16.3c-4.2,14.5,44.8,13.1,61.4,25.3c6.7-0.4-2.7-3.4-3.7-9.3c-1.7-1.3,2.2-16.7-4.6-12.9
		c-14,25.5-16.3,0.5-27.7-9.4c-7.5,7.8-9,12.3-19.4,1c0.1-0.1,0.2-0.1,0.2-0.1c-25.1-19-24.7,4.2-31.5-39.4
		c1.8-2.2,2.1-6.9,3.7-10.7c8.4-4.6,31.7,10.5,48,24.1c18.2-9.8,8.2-5.4,37.4,5c18.2-3.9,29.3,8.8,48.2,12.9c2,3.6,2.3,8.9,5.5,12.3
		c-2.5,7.7,2.9,41.2-24.5,29.5c-2.3-6.7-6.8-26.4-13.7-8.8c4,18,26.2,13.9,42.7,16.6c7.8,12.4,87.8,17.8,113.3-13.1
		c45-16.6,103.4-30,141.3-55.2c29.2-26.8,35.3-32,24.5-111.2c4.6-1.2-3.5-21.5,4.5-36.3c8.9-7.2,8.3,9.5,8.2-13.3
		c2.2-5.9,29.9-6,42.1-13.8c0.7-1.3,2.3-5.7-1.1-3.5c-20.2,9.5-11-23.5,5.8-38.7c7.3-9.8,18.6,10.2,29.4,5.6
		C974,921.7,979.4,913.4,979.3,906.7z M935.6,853.5c-5.7,30.5-23.9,17.2-47.4,6.1C824,840.4,965.2,803.7,935.6,853.5z M430.5,978.8
		c-0.1,0-0.3,0.1-0.4,0.1C430.2,978.9,430.3,978.9,430.5,978.8z M497.5,1107.6c-12.8,4.8-25-5.5-40.5-11.9
		c-3.4-2.5-3.7-44.3-4.1-19.8c-0.1-0.1-0.4-14.9,1.8-23.4c21.5-2.4,48.5-0.4,55.3,33.2C501.7,1088.1,505.7,1102.5,497.5,1107.6z
		 M510.8,1121.5C510.9,1121.4,510.9,1121.3,510.8,1121.5C510.9,1121.3,511.1,1121,510.8,1121.5z M511,1121.1c0,0,0-0.1,0.1-0.2
		C511,1121.2,511,1121.1,511,1121.1z M574.5,1101c-11.3,13.4-16.9,47.5-31.3,7.9c-25.6,30.4-26.6,7-30.7-21.7
		c12.5-4.6,13.4-24.4,31.1-1c12.5,2,4.5-17.7,32.5,7.2c-0.5,1.8,1.5,1-1,9.5C574.7,1103.2,576.2,1100.2,574.5,1101z M871,968.3
		c-1.1,0-1.3,0-1.8,0c0.4,0,0.8-0.2,2.7-0.1C871.6,968.3,871.3,968.3,871,968.3z"/>
	<path class="st2" d="M1003.9,716.5c-11.2,8-15.4,29.6-39.9,30c-22.8-34.9-26.5-22.9-16.6,17c3.8,20.9-27.9-16-14.8,33
		c4.6-39.1,21.4-1.1,18.4-15.5c3,0.5,10.9-8.2,8.2-9.4c3.4-4.4,8.3-10.2,10.9-15.7c0,1.2,3.1-0.8,2.7-2.7
		C981.2,743.7,1000.7,733.9,1003.9,716.5z"/>
	<path class="st2" d="M603,922.9C603,922.9,603,922.9,603,922.9C603,922.9,603,922.9,603,922.9z"/>
	<path class="st2" d="M603,922.9C603,922.9,603,922.9,603,922.9L603,922.9z"/>
	<path class="st2" d="M454,963.1C454,963.1,454,963.1,454,963.1C454,963.1,454,963.1,454,963.1z"/>
	<path class="st2" d="M454,963.1C454,963,454,963,454,963.1L454,963.1z"/>
	<path class="st2" d="M508.2,1064.4C508.2,1064.4,508.2,1064.4,508.2,1064.4L508.2,1064.4z"/>
	<path class="st2" d="M598.9,1073.6C598.9,1073.6,598.9,1073.6,598.9,1073.6L598.9,1073.6z"/>
	<path class="st2" d="M376.2,455.3c35.7,26.1,20.7-16,51.3,7.7c-22.2,26.6,15.1-10.4-3.5,27.1c-3,4.9,55.6-26.1,29.1,5.4
		c0.7,0.8,2.9,0.7,4.8,0.3c7.8-6,9.8,0.6,17.1,6.6c7.5-6.8,23.4-2.9,27.2,8.2c-0.8,5.6-10.1,10.5,3.1,6.7c6.6-8.5,11.4,0.4,14.9,8.5
		c9.8-15.8,27.8-11.3,13.1,11c-1.8,6.5,4.8-3.8,7.9,3.4c27.5-46.5,42.6,13.6,104-8c36.6,9.6,15.6,8.1,74.9-21.6
		c-87.5,11.2-15.8,44.1-90.8-5c-3.2,44.5-33.4,22.2-61.5,5.7c-32.7-0.5-65.8-12.5-96.8-27.7c-27-6.5-55.5-62.2-83.3-47.7
		C397.4,446.1,376.1,446.9,376.2,455.3z"/>
	<path class="st2" d="M737.3,854c-30.1-1.4-27.4-7.5-57.1-33.5c-4.8-7.6-9.5-16.2-14.5-24.4c-0.2-8.4-17-78.5-19.9-25.1
		c0.8,16.9-10.2,30.4-18.9,46.2c-27.6,22-64.5,43.8-100.1,59.2c0.6-3.7-71,67.2-75,2.1c1.6-13.7,26.3-27.3,34.4-10.4
		c-18.3,17.2,7.8,27.6,13.4,1.8c0.5-19.1-30.5-18.9-44.7-9.3c-33.6,22.6-4.2,81,54.6,39.8c7.7,26.1,28.3,48.2,59,22
		c5.6-6.2,8.1-28.3-5.8-28.8c12.3,64.4-75.9,24.9-23.5-17.7c23.3-13.7,49.9-22.7,73-38.4c5-3.1,7.9-3.7,15,1
		c-13.1,24.9-30.9,53.9-24.3,84.3c0.3,0.3,0.1,0.9,1.5,2.1c-4.6,50.8,141.8,60.4,77-81c162,33,49.6,103.8,46.4,53.2
		c-0.6-13.1,28.8-7.5,16.9-17.5c-38.3-3.4-34.7,46,7.9,40.6c56.8-26.1-11.2-31.6,68.3-31.5c42-8.4,22.9-71.3-17.3-38.7
		c-2.8,2.3-0.6,13.5,5.3,7.1c22.1-41.9,58.5,48.5-32,19.3C766.1,876.2,766,858.7,737.3,854z"/>
	<path class="st2" d="M777.1,876.8C777.1,876.8,777.1,876.8,777.1,876.8L777.1,876.8z"/>
	<path class="st2" d="M521.8,632.5c-29.4,4.9,9.9,14.8,15,32c-15.1,18.6,3.9,9.8,18.4,32C574.9,720.6,538.3,631.2,521.8,632.5z"/>
	<path class="st2" d="M405.1,677.6c10-12.1-16.1-8.5-20.9,1.4c-4.1,2.7-20.5,44.5-1.4,23.1C388.1,692.4,396.1,685.6,405.1,677.6z"/>
	<path class="st2" d="M393.4,852.4c-11.1-7.1-28.4-0.3-39.3-11c0.5-1.9-22.3,13.4-13.8,16.7C347.5,850.7,394.9,861.5,393.4,852.4z"
		/>
	<path class="st2" d="M355.4,941.8c-10.3-3.1,0-39.3-9.7-49.1c-6.2-9.7-14.6-52.4-30.8-33.3c19.3,4.4,26.7,28.8,29.6,47.6
		C341.5,906.2,343.6,966.6,355.4,941.8z"/>
	<path class="st2" d="M524.7,538.2c3.5,1.8,4-1.3-1.8-1.5C522.7,537.2,523.4,537.3,524.7,538.2z"/>
	<path class="st2" d="M648.4,1131.7C648.4,1131.7,648.5,1131.8,648.4,1131.7L648.4,1131.7z"/>
	<path class="st2" d="M842.5,654.2c1.2,4.9,9.3-0.6,41.1,21.8C921.2,727.6,896.8,636.4,842.5,654.2z"/>
	<path class="st2" d="M721.1,672.1c-16.5,35.9,33.9,7.4,9.6-7.2C728.2,661.5,725.8,668.7,721.1,672.1z"/>
	<path class="st2" d="M743.5,456.3c0-0.7,46.4,9.3,41.7,3.6c-25.7-0.5-26.7-13.4,21.2-8.4c9.9-3.1-2-12.1-9.4-14.7
		c-2.1-3.7,10.1-5.6,1.3-8C796.6,423.4,749.2,444.3,743.5,456.3z"/>
	<path class="st2" d="M761,504.6c8.5-11.5,31.3,0.6,45.7-21C798.9,475,729,509.9,761,504.6z"/>
	<path class="st2" d="M612.5,336.6c3.9,10.5,16.6-5.1,23.1-10.9C681.8,319,614.2,286.1,612.5,336.6z"/>
	<path class="st2" d="M609.4,419.7c14.5,25.8,60.6-60.3,23.4-18.1C633.1,404,605.5,414.4,609.4,419.7z"/>
	<path class="st2" d="M486.2,360.1c2.8,5,71.4-17.8,19.8-21.6C501.1,360.2,488.6,343.2,486.2,360.1z"/>
	<path class="st2" d="M685.1,1141.7c-9.2,3.4,48.5,27.8,14.8-10.9C690,1093.7,692.3,1121.7,685.1,1141.7z"/>
	<path class="st2" d="M723.9,1117.4c-13.4,11.9,16.8,25.3,16.8,16.4C745.2,1131.7,721.5,1095.6,723.9,1117.4z"/>
</g>
<g>
	<path class="st3" d="M336.3,738.9c0.3-47.2-11.5-12.9-17.5,15.4c-7.3,7.4-16.1,8.5,2,19.1C331.7,783.7,335.7,751.9,336.3,738.9z"/>
	<path class="st3" d="M908.5,715c-4-15.8,3.8-45.3-29-54.6c8.8-0.3,38,40.8,13.4,27.6c-9.4-19.7-35.7-23.4-50.4-35.1
		c3.2-6.2,22.6-0.1,34.6,5.9c-0.4-2-9.5-6.5-14.4-7.6c-38.3-7.8-71.1-3.4-121.6,15.2c-10.1-0.1,4.7-24.2-6.5-18.8
		c-16.7,1.6-37.7,93.1-18.4,101.1c8.6-72.2,54.8-109.8,142.1-85.9c70.6,25.5,39.1,145.9,19,117.3c-2.5-4.9,10.3-40.4-4.5-44.2
		c8.5,76.5-72.4,102.4-130.9,53.9c-29.5-32.2-8.5,34.8,83.3,29.4C879.9,803.5,912.4,791,908.5,715z M738,676.6
		c-3.4,2.9-16.1,26.2-20.2,5.7C718.9,672.4,733.4,651.5,738,676.6z"/>
	<path class="st3" d="M830.1,471.4c27.8-8.5,0.5-7.5-16.8-3.3c41.5,6.5-114.8,36.5-117.6,47.1c11.8-0.4,23.5-6.8,36.5-4.2
		c5.6,2.7,20.8,15.1,3.2,17.8c1.9,1.3,4.5,2.2,7.7,3c3.9,1.3,8.6,2.8,13.4,4.8c23.3,6.2-36.8-31.7-7.4-29.4
		c9.2,3.3,16.4,12.3,27.1,12.5c10.1-1.3-15.3-10-20.6-13.2c-12.9-6.6,27.1-20.2,39.7-23C806.5,479.3,838.9,496.4,830.1,471.4z"/>
	<path class="st3" d="M531.4,672.3c-0.1-1,10.2-10.8,2.9-9.6c-4.9,15.6-42.3-20.7-96.8-1.6c12.9,3.2,40.4-2.1,59,4.8
		C498.7,666.1,535.2,685.3,531.4,672.3z"/>
	<path class="st3" d="M940.6,685.1c1.8,0.2-12.5-58.1-24.2-43.1C917.4,643,938.6,732.6,940.6,685.1z"/>
	<path class="st3" d="M367.2,632.7c3.5-3.2-25.6-4.3-28.5-3.1c20.1,8.6,1.3,18.2,4.2,34.4C349.4,666.3,350.7,645.4,367.2,632.7z"/>
	<path class="st3" d="M994.7,584.1c-15.9-1.7-30.9,5.7-49.5,6.8c-20.4,2.5,32.3,10.2,35.8,2.3c2.6-1.6,5.1-4.5,9-5.7
		C990.9,586.6,993.6,585.9,994.7,584.1z"/>
	<path class="st3" d="M739.1,647.4c8.7-4.5,41.5-19.3,24.2-28C758.1,626.4,732.8,633.6,739.1,647.4z"/>
	<path class="st3" d="M471.1,1188.7c39,13.7,80.7,19.6,145.9,50.8c14-11.1-40.9-25.3-57.4-31.1c-23.5-7.7-48.6-14.6-73.7-17.9
		c-2.9,1.2-26.4-19.5-31.6-6.8c-6.1,0.6,39.6,34.4,108.6,93.8c9.1-4.7-24-19.5-2.3-16.1c14.6,3.6,39.1-2.4,1.7-9.1
		c-2.6-16.6-16.3-13.8-33.8-16.1c-0.3,0.1-20.6-9.6-14.6-14.9C571.4,1223.3,464.2,1201.5,471.1,1188.7z"/>
	<path class="st3" d="M559.6,1208.4C559.6,1208.4,559.6,1208.4,559.6,1208.4C559.6,1208.4,559.6,1208.4,559.6,1208.4z"/>
	<path class="st3" d="M680.3,1319c-9.2-7.8-10.4,65.6-77-55.3c-8.7,10.1,9.4,24.4,12.8,35.8c-56.9-12.1-28.9,9.7,3.9,5.3
		C634.5,1317,666.2,1369.4,680.3,1319z"/>
	<path class="st3" d="M698.2,1253.2c-1.5,42.6,20.9,0.9-4.2-18.6c-4.6-4.5,2.9-11.2-0.2-16c-13.4,5.3-26.2,12.5-40.8,17.6
		C650.8,1260.6,685.1,1209,698.2,1253.2z"/>
	<path class="st3" d="M844.5,1166.4c-2.2-8.5-17.5-6.4-19.8-0.3c-92.7,26.7-165.6,57.8,2.7,4.3c9.8-2.2-7.7,17.1,5.2,8.3
		C837.5,1177.1,845.5,1174.4,844.5,1166.4z"/>
	<path class="st3" d="M827.9,1181.9c-3.7,3.5-22.8-0.7-22.3,10.7c-46.2,11.8,50,1.6-44.2,35.2c-7,5.8,4.3,6.1,10.4,4.4
		c24.8,7-36.5,15.5-20.6,22.8c0,5.1-6.3,13.8-7.7,18.1c-6.3-2.9-19.7,25.3-45,31c7.2,11,33.9-15.9,46.3-28.7
		c-0.9,3.8,20.9-10,18.9-16c17.5-13,25.1-38.2,45-51.1C805.9,1214.9,828.2,1188.2,827.9,1181.9z"/>
	<path class="st3" d="M432.8,405.3c21.6,10.1,75.8-23.6,73.5,27.5c0.8,7.6-1.3-8.4,16.3,12.4c29,33.8,101.3,14.4,36.3,66.2
		c18.7-4.9,35.6,29.1,61.5,17.7c6-5.4-6.8,4.4-19.4-1.6c-27.2-7.6,27.6-32.6,24.3-3.2c8.6-10.2-8.2-38.6,25.6-3.6
		c0.1-0.3,16.1,20.3,21.9,4.6c-11,4.5-20.8-6.3-28.8-17.6c-9.4,0.4,84.7-45,116-46.1c32.1-2-4.9-1.4-16.7-6.2
		c-4.7-1,35-20.9,17.9-14.8c6.7,1.2-219.8,105.7-179.9,58.3c11.4-13.9,32.9-22.8,50.7-30.1c164.6-41.2,16.8-113.7,220-92.9
		c30.8,2.1-66.8,51.3-83.4,61.4c6.6-0.8,12.7-5.7,19.9-8.7c20.3-5-1.9,15.8,46.6-23.2c12.8-12.9,43.4-16.7,40.6-40.9
		c-16,1.1-19.4,12.6-75.4,2.6c-1.7-1.2-32.4,1.5-23.1-9.8c19-5.5-72.7-67.2-95.4-57.5c-15.4,1-27.4-27.5-44.5-34.5
		c-39.2-5-26.6,34.3-98.9,27.4c-23.2,15.3,1,11.5,45.4,5.3c9.1-1.4,35.4-35.3,53.2-25.8c16.8,6,24.7,32.4,44.7,31.8
		c7.4-11.5,101.6,37.2,82.5,54.7c3.9,2.8-220.4,158.2-144.1,67.3c10.1-7.2-16.6,5.3-9.4-11.8c14.7-2,22.7-18.2,33.4-25
		c14.2,7.2-16.8,24.8-10.8,24.3c29.4-15.6,41.4-38.6,80.6-62.5c16.6-19.8,7.2-13-11.8-13.4c-21.9-15.2-26.4-28.2-73.8-29.8
		c-8,3.2-24.1-5.4-27.2,6.9c0,6.7,20-10.1,10.4,16.7c-9.5,25.4,13.7,37.3,21.1,59.9c-5.2,7.2-21-11.7-39.3-26.3
		c-22.8-17.1,4.2-6.4-9.5-27.9c9.4-13,16.1-19.3-8.3-5.9c-10.9,5.2-24.6-7.3-53.3,6.7c-10.3,3.9-14.5-4.3-10.1-17.4
		c-13.9-2.8-7,21.7-21.7,28.2c7.6,8.4,12.1-1.7,15.8-10.3c3,2.8,25.2-0.1,18,8.6c-7.9,4.7-16.7,9.4-25.4,13.8
		c-2.9,0.3-38.2-3.8-23.8,3.3c49.4-11,73.9,42.8,119.5,52.1c22.6,1.4,17.9,28.5-20.6,12.8c-37.8-21-90.8-23.6-122.6-52
		C427.6,392.7,468.9,387.8,432.8,405.3z M609.3,466c-11.9,1,144.4-82.1,88.1-32.1C706.7,431.7,607.2,478.5,609.3,466z M665.5,323.6
		c-1.1-7.9,40.7,14,32.5,30.1c3.3-1.6-52.3,50.5-44.5,28.8C665.8,360.8,694.3,353.8,665.5,323.6z M652.9,328.1
		c20.6,6,18.6,40.6-4.4,43.9C654.9,347.2,615,317.2,652.9,328.1z M632.8,327.9c-22,27.1-26.9,3.7-9.5-17.6
		C640.8,308.3,673.6,313.6,632.8,327.9z M576.6,367.1c-3.7-16,56.2,29.6,44.9,34c-9,0.5-19.3-4.9-27.6-10.9
		C586.8,384.8,576.1,378.3,576.6,367.1z M607.2,411.1c-25.4-9.2-28.3,5-78-39.9c-2.1-3.9-22.2-7.7-13.8-15.8
		c16.3-2.1,34.2-21.2,56.4-9.4C553,395.9,632.1,402.2,607.2,411.1z M512.2,419c5.9-12.9,25.6,3.8,45.3,10.4
		C648.3,445.9,556.4,507.3,512.2,419z"/>
	<path class="st3" d="M456.1,830.3c225.3,5.7,36.6-282.6,104.2-136.7c3.9,19.8-9.7-8.6-24-13.6c3.8,6.7,27.1,37.4,27.6,55.2
		c-1.8,7.2,0.2,10.5,1.3,19.9c0.4,0.8-30.7,71.4-44,47.1c11.8-25.4,24.1-36.5-1.1-88.9c-4.9-5.3-1.8-31.7-16.4-29.3
		c-18.4,15.4,12.3,30.9,15.4,47.3c26.7,53.4-22.5,134.4-122.5,65.2c-17-11.1-54.7-92.9,37.6-133.2c-1.7-7.5-33,2.4-40.5,8.3
		c23.2-6.5,12.1,6.9-2.7,18.4c-2.6,3.4-21.2,34.2-16.2,8.1c-13.4,6.8-7.4,65.8,0.8,89.9C393.7,813.7,425.9,822.6,456.1,830.3z"/>
	<path class="st3" d="M363.8,432.3c87.5,3.6-9.8-1.3,52.9-23.1c8.8-8.2-33.5,2.5-43.8,9.7C370.4,429.3,379.4,425.2,363.8,432.3z"/>
	<path class="st3" d="M307,717.5c-0.1,0.2-1.9-3.4-1.7-1.1c0.1-0.8-2-2.6-4-1.1c2.2-1.6-1.9-6.3-4.3-1.6c-3.8-3-10.2,10.4-6.3,11.7
		C291,738.5,309.2,729,307,717.5z M295.5,726.2c0.1-0.3,0.2-0.6,0.3-0.8C295.6,725.3,296.2,726.2,295.5,726.2z"/>
	<path class="st3" d="M840.8,691.4c1.2,6.9,6.4,13.1,13,18C872.3,724.1,843.2,655.7,840.8,691.4z"/>
</g>
<g>
	<path class="st4" d="M921.1,1135.8c-6-24.4,7.4-34.1-20.6-66.1c-2.3,7.5-3.1-84.7-9.2-72.9c1.5,26.4-1.5,55.3,8.3,81.1
		c8.5,14.8,17.2-1.2,15.4,69.5c-6.6,14.8-28.2,24.8-44.9,39.6c-45.6,33.1-88.7,70.4-127,112.5c-40.4,45.7-38.7,72-120.3,60.1
		c97.1,31.3,75.1-26.3,202.3-131.5C830.2,1217.4,927.2,1167.9,921.1,1135.8z"/>
	<path class="st4" d="M619,1355.2c-0.3,0.1-145.7-147.6-221.5-162.3c41,22.5,83.4,45.9,121.1,76.7
		C511.9,1259.6,605.5,1358.3,619,1355.2z"/>
	<path class="st4" d="M813.7,238.7c-1.5-9.7,98.4,34.8,57.9,48.6c15.3-2.8,31.2-11.4,0.8-24.7C872.5,262.9,806,212.7,813.7,238.7z"
		/>
	<path class="st4" d="M590,197.2c0.2,0,5.3,8.1,4.9,3.2c-3.7-18.9,50-5.9,72.3-13.4C678.1,184.4,580.9,178.6,590,197.2z"/>
	<path class="st4" d="M1011.7,449.1c-2.4,0.8-34.1-87.3-45.9-73.2c8.9,5.6,15.2,21,22.9,33.6C988.5,405.8,1010.2,464.4,1011.7,449.1
		z"/>
	<path class="st4" d="M251.5,523.1c-19.8-13.9-16.4,9.3-16.7,63.5c4.7,5.9-12.7,54.7,9.2,39.8c9.8-7.1-11.6,3.6-6.4-16.9
		C241,605.1,226.2,505.8,251.5,523.1z"/>
	<path class="st4" d="M1037.2,570.8c0,5.4-3.9-65.6-9.2-53.8C1031.1,518.4,1026.7,619.3,1037.2,570.8z"/>
	<path class="st4" d="M480.2,228.7c17.9,17.7-4.8-7.8,16.7-12.2c8.4-2.2,19.4-2.2,26.3-9.3C532.2,201.3,472.2,215.3,480.2,228.7z"/>
	<path class="st4" d="M945.2,333c-5.1-4.8-45-68.9-47.8-33.8C912.9,281.7,935.8,334.6,945.2,333z"/>
	<path class="st4" d="M816.2,1101.4C816.2,1101.4,816.2,1101.4,816.2,1101.4L816.2,1101.4z"/>
	<path class="st4" d="M345.1,667.2c9.4-15.1-6.8,9.5-2.4-12.6c1.1,3.3-41.2,4.7-20.9,8.3c41.1,3.8-1.8,2.1-7.3,42.5
		C320.4,696.7,320.1,683.1,345.1,667.2z"/>
	<path class="st4" d="M534.4,540.6c1.6,1,4.4,0.3,4.9,4.1C541,558.8,544,526.8,534.4,540.6z"/>
	<path class="st4" d="M588.1,576.2c1.7-2.8,7.5,0.6,8.1-1.9C595.1,566.7,583.7,572.8,588.1,576.2z"/>
	<path class="st4" d="M553.1,556.4c2.1-3.5,5.9-4,10.5-2.1C562.4,543.9,550.6,552,553.1,556.4z"/>
	<path class="st4" d="M655.4,579.4c14.6-0.8,1.5-12.1-1.5,0.2C654.2,580.2,654.1,580.5,655.4,579.4z"/>
	<path class="st4" d="M626.4,576.6c2.5-2.1,9.9,7.5,6.8,0.8C633.8,571.9,618.3,575,626.4,576.6z"/>
	<path class="st4" d="M351.5,947.7c0.3-0.9-10.3-0.5-6.4,2C345.1,949.4,356.4,950.7,351.5,947.7z"/>
	<path class="st4" d="M510.3,516.8c-0.7-0.8-11.4,1.3-5.9,1.5C505.8,517.3,517,520.3,510.3,516.8z"/>
	<path class="st4" d="M614.9,602.5c1.1,0.3,1.8-6.8-1.2-2.9C614,599.9,612.9,602.1,614.9,602.5z"/>
	<path class="st4" d="M810.8,622.3c0,0.7,10.5-0.9,6.8-1.6C817.7,621,804.9,621.5,810.8,622.3z"/>
	<path class="st4" d="M513,518.9C512.5,518.4,512.4,518.2,513,518.9C516.4,519.9,511.6,515.3,513,518.9z"/>
	<path class="st4" d="M515.6,519.5C515.1,519.2,514.7,519,515.6,519.5C517.1,520.4,513.9,516.7,515.6,519.5z"/>
	<path class="st4" d="M298.4,733.2c0.4-0.3,0.6-0.5,0.6-0.6C298.6,732.9,298.4,733.1,298.4,733.2z"/>
	<path class="st4" d="M562.8,1164.4c-11.2-4.9-7.4,45.7-28.6-2.4c-7.4-1.9-4.9,21.9-20.6,2c0.5-11.4-5.4-27.6,11-33.5
		c-20.6-24.7-21,66.1,3.2,42.9c13.5-20.5,1.3,12.2,16.8,15c-10.1,5.2-7.4-10.2-27.1-4.6c15.5,0.5,17.4,14.9,42.1,9
		c21.3,12.3,9.2,6.7,44.3,11.1c12.9-5.4-70.4-2-38.7-28.7c1.1,23,32.6,32,29.4-6.5c-5.6,17.3-9.1,33.5-26.6,7
		C570.5,1174.8,567.7,1165.3,562.8,1164.4z"/>
	<path class="st4" d="M413.5,1092.8c0,10.7,2.2,29.9,9.7,36.1c-4.8-25-9.8-51.9-7.2-80.1C416.3,1041.5,412.1,984.9,413.5,1092.8z"/>
	<path class="st4" d="M279.4,452.3c0.5-0.6-5.3,1.6-2,1.1C278.2,453.2,282.8,452.7,279.4,452.3z"/>
	<path class="st4" d="M274.3,454.4C274.5,454.3,274.8,454.2,274.3,454.4C274.5,454.4,276.7,453.2,274.3,454.4z"/>
	<path class="st4" d="M885.9,383.9C885.9,383.9,885.9,383.9,885.9,383.9L885.9,383.9z"/>
	<path class="st4" d="M865,387.5C864.9,387.5,865,387.5,865,387.5L865,387.5z"/>
	<path class="st4" d="M890.1,374.8c-19.1,3.9-9.1-19.4-9.1-32.9c-7.1,10.2-1.1,36.2-16.1,45.5c6.4-3,13.7-2.3,20.9-3.5
		c4.1-1.1,17.9-1.4,19.3-4.7c-2.7-3.3-23.6,6.8-24.2-0.8C891.1,377.4,918.4,369.6,890.1,374.8z"/>
	<path class="st4" d="M299.3,711.7c0.4-0.3,0.6-0.5,0.6-0.6C299.5,711.5,299.3,711.7,299.3,711.7z"/>
	<path class="st4" d="M298.4,712.6c0.4-0.3,0.6-0.5,0.6-0.6C298.6,712.4,298.4,712.6,298.4,712.6z"/>
	<path class="st4" d="M343.1,394.1c1.2,0.6,6.7,0.6,1.1-0.2C343.8,393.8,341.6,393.7,343.1,394.1z"/>
	<path class="st4" d="M529.6,301.7c1,1.5,1.3-2-1.6-2.4C528.4,300,528.1,300,529.6,301.7z"/>
	<path class="st4" d="M527.2,297.9c0.4,0.1,0.8,0.3-0.2-0.6C526.9,297.4,526.1,297.4,527.2,297.9z"/>
	<path class="st4" d="M526.9,297C526.5,297.3,526.3,297.3,526.9,297C526.6,296.3,525.7,294.9,526.9,297z"/>
	<path class="st4" d="M665.6,1079.4c-2.7,0.8-15.6,14.5-8.3,15.4c13.9-38.2,43.1,33.6,17.4,45.1c-8.1,2.2-17-10-19.9-8.2
		c-3.3,27.4,40.1,22.6-23.6,25.1c-11.7,1-2.1,52.2-19.8,34.3c-7.9-7.9-5.1-26.7-10.2-32.5c-3.8-5.1,1,46,15.9,44.3
		c28.8-17.7,2.5-4.7,24.2,1.2c25.5-5.9-24.4,0.6,2.3-39.6c12-8.2,0.9,57.3,41.9,24.3c-16.7,6.7-29.8,0-24.6-24.3
		c17.8-17.6,56-21.3,38.4,21.4c-7.8,6.6,4.1,6.1,9.5-10.2c3.1-3.8,10.5,5.8,13.3,1.3c5.1,7.1,14-6,19.5-9.7
		c10.6,2.1,15.8-0.4,25.1-11.5c8.8-2.8,11.3,8.4,30.4-9.8c5.1,1.1,24.8,0.2,22.9-5.1c2.8-0.2,9.9-2,11.2-6.8
		c7.4,1.7,21.3-18.4,16.4-26c0.8-3.4-0.3-13.4-5.4-15.2c-2.6-2.8,5-61.8-17.9-48.1c-4.6-1.1-28.2,21.2-10.2,9.7
		c56.7-3.1-16.5,71.1-13.3,16.1c6.5-10.9-13.9,0.2,6.6,32.7c-8.1-14.1,32.9-21.7,8.6-1.9c0,0,0,0,0,0c0.4-0.3,0.6-0.3,1.9-1.4
		c7.6-2.1,26.3-0.6,23.8,15.5c-1.5,2.3-4.1,3.9-6,7.4c-58.5,50-18.6-29.4-42.6,0.5c-2.2-2.3-2.5-8-6.3-9.3
		c-0.9-9.1,2.5-34.8-10.3-8.8c-27.9-7.2,6.1,1.7-13,26.1c-16.9-10-2.5-11.3-9.8-27.1c-17.9,50.4-33.3-44.8-37.1,16.3
		c-1.3,10.5-9.6,9.4-17.3,6.3c4.4,16.9,10,18.2,27.3,11.7c12.2-0.3,14.3,37.4-3.3,34.7c-4.8-5.1-14-2.7-13.3-20.2
		c-3.2-3.7-28.4-0.8-25.9-13.6c10.5-3-1-46.6,14.9-16.4c-1.2-11.2-6.5-25.2-1.7-37.2c0.5-6.8-3.3,5.5-7.3,7.2
		C683.3,1089.6,680,1074,665.6,1079.4z M772.5,1121.3c1.3-1.7,2.8-2.6,5.3-4.4c31.6,7.4-6,60-6.2,5.2
		C771.8,1121.9,772,1121.7,772.5,1121.3z M769.2,1136.3c0-1.1,0-1.2,0-1.8c-0.4-0.4,1,2.7-0.8,1.5
		C768.6,1136.2,768.9,1136.3,769.2,1136.3z M745.3,1142.3c3.2-18.5,23.9-5,13.3,13.4C750.9,1162,744.7,1151.8,745.3,1142.3z
		 M735.3,1136.4c-2.6-7.8-27.2,4.5-8-26.2C730.2,1113.3,752,1140.2,735.3,1136.4z"/>
	<path class="st4" d="M474.5,1103c28.2,27.1,49.1-37.9,15.4-45.3C505.2,1072.7,501.6,1107.9,474.5,1103z"/>
	<path class="st4" d="M712.6,1080c9.6,25.5,29.5-26,40.8,19.9C764.9,1067.7,733,1078.7,712.6,1080z"/>
	<path class="st4" d="M523.7,1078.2c28.7,6.1-0.8,44.5,21.1,30.2c-0.3,10.7,9.7,29.6,18.6,11.1c-13.2,5.9-12.5-4.4-14.1-17.3
		c-1.3-8.7-3.8-16.2,11.1-18.4c3.4-4.5-11.4-3.5-13.2,3.9C540.3,1087.2,534.5,1067.5,523.7,1078.2z"/>
	<path class="st4" d="M453.2,1067.8c1.4,7.4-1.6,40.5,16.9,30.4C447.4,1100.6,459.1,1023.7,453.2,1067.8z"/>
	<path class="st4" d="M608.5,1095.3c-0.5,2.4-7.2,11.9,2.2,10.1C615.8,1099.2,609.1,1080.8,608.5,1095.3z"/>
	<path class="st4" d="M647.7,1111.8c4.6-4-7.1-32-2.3-10.6c-4.7,1.3,6.8,49.1,1.8,10.2C647.3,1111.7,647.5,1112,647.7,1111.8z"/>
	<path class="st4" d="M784.7,1083.9c1.2-0.7,1-11.8-1-7.2C783.8,1076.8,782.2,1088.6,784.7,1083.9z"/>
	<path class="st4" d="M599.2,1083.8C599.7,1084.1,600.1,1084.4,599.2,1083.8C597.5,1083.5,595.7,1085.1,599.2,1083.8z"/>
	<path class="st4" d="M595.1,1085.3C595.3,1085.2,595.6,1085,595.1,1085.3C595.3,1085.3,597.5,1084.1,595.1,1085.3z"/>
	<path class="st4" d="M467,1147.7c-1.3,0.5-7.3-1.7-7.6-0.6C459.1,1148.8,468,1149,467,1147.7z"/>
	<path class="st4" d="M474.1,1153.2c-0.3-0.4-0.5-0.6-0.6-0.6C473.9,1152.9,474.1,1153.1,474.1,1153.2z"/>
	<path class="st4" d="M473.2,1152.3c-0.3-0.4-0.5-0.6-0.6-0.6C473,1152,473.2,1152.2,473.2,1152.3z"/>
	<path class="st4" d="M579.4,1113.2c4.2,37.8,1.9-1,3.8-19.4c22.5-10.9-2.8-8-1.9,1C579.2,1099.3,578.6,1107.2,579.4,1113.2z"/>
	<path class="st4" d="M575.4,1101.3C575.2,1101,575.2,1100.8,575.4,1101.3C575.4,1101.3,576.5,1100.2,575.4,1101.3z"/>
	<path class="st4" d="M751.8,1107c0.1,0-0.1,0.3,0.3,0.5C752.2,1107.4,752.2,1105.2,751.8,1107z"/>
	<path class="st4" d="M647.8,1127.3c0.4-0.3,0.6-0.5,0.6-0.6C648,1127,647.8,1127.2,647.8,1127.3z"/>
	<path class="st4" d="M740,694.8c0-0.3,0,0-0.3-0.4C739.7,694.3,739.6,696.6,740,694.8z"/>
	<path class="st4" d="M501,1136.2c-2.4-8.6-2.6-2.5-1.5,6.3C501.6,1141.9,501.4,1139.1,501,1136.2z"/>
</g>
<g>
	<path class="st5" d="M610.7,147.3c59.6,42.7,11.8-123.6,5.8-121.4C621.2,62.6,601.8,121.6,610.7,147.3z"/>
	<path class="st5" d="M170.9,600.7c85.1-47.2-138.2-8.3-138.1-12.6C51.1,616.6,133.3,590.6,170.9,600.7z"/>
	<path class="st5" d="M275.8,270.1c-15.4-11.6-108.2-72.5-104.7-57.2C176.9,252.6,346.8,349.5,275.8,270.1z"/>
	<path class="st5" d="M121.4,710.3c21.4-11.4,94.7-3,85-33.1C177.9,639.5-104.7,789,121.4,710.3z"/>
	<path class="st5" d="M1200.2,524.3c-29.6,2.7-112.6-7.2-134.2-0.2C1031.5,571.7,1256.4,538.3,1200.2,524.3z"/>
	<path class="st5" d="M1164.4,829.3c-38.3-20.4-142.4-105-144.6-67.3C1028.4,779.8,1237.5,882.1,1164.4,829.3z"/>
	<path class="st5" d="M195.4,800.1c-28.6,22.2-57.1,36.5-80.3,52.1c-11.4,24.1,78.9-29.5,74.5-26.1
		C284.7,800.6,249.4,736.3,195.4,800.1z"/>
	<path class="st5" d="M1076.4,224.3c46-49.8-142.3,74.2-121.1,77.4C985.4,325.4,1058.2,230.2,1076.4,224.3z"/>
	<path class="st5" d="M1112.8,647c-15.3-11.4-60.2-7.1-45.5,11.2c36.4,13.5,74.4,8.3,105.2,14.3
		C1197.3,669.2,1110.5,647.3,1112.8,647z"/>
	<path class="st5" d="M114,405.9c24.3,11.5,112.2,49.7,82.1,6.2C172.4,404.2,62.1,382,114,405.9z"/>
	<path class="st5" d="M432,185.1c42.1,0.7-38-79.1-45.7-89.5C361.4,71.4,413.7,171.2,432,185.1z"/>
	<path class="st5" d="M1036.2,414.1c28.6,4,97.9-44.7,102.8-51.7C1110.5,356.1,1029.2,404.7,1036.2,414.1z"/>
	<path class="st5" d="M824.1,182.1c12.8-7.8,34.3-70.9,22.8-74.9C833,127.6,779.3,191.2,824.1,182.1z"/>
	<path class="st5" d="M851.8,796.2c-78.4,9.2-115.2-2.6-121.8-95c-6.6,14.7-22.5,50.1-9.5,72.5C745.6,801.2,820.4,836.4,851.8,796.2
		z"/>
	<path class="st5" d="M701.5,1272.5c-5.8,2.8,5.3-59.8-41.5-29.3c-4.2,2.3-8.9-10.9-30.1-10.3c-53.5,8.9-8.5,74.2,24.4,98.8
		c12.2,9.8,11.3-6.5,38.1-20.6C700.2,1303.2,684.5,1317.3,701.5,1272.5z"/>
	<path class="st5" d="M505.2,807.5c-84.1,9.8-121.1-16.8-109.8-116.1c-25.7,15.3-29.7,79.4,1.4,105.1
		C424.4,816.8,475.3,839.9,505.2,807.5z"/>
	<path class="st5" d="M577,493.6c32.9-27.3-27.4-14.4-63-57.4c-6-7-2.5,8.2-46.3-8.5c-0.6-2.9-31.4,2.4-29.1-6.2
		c17.9-5.4,45.9-11.6,65.9-0.5c2.7-7.3-6.3-16.9-15.6-16.5c7.6,2.4-74.6-3.3-72.7,5.4c-1.4,6.9-28.4,3.8-22.2,14.5
		c26.7,18.4,47.9,44.8,78.9,60.2C494.5,491.5,556.2,531.1,577,493.6z"/>
	<path class="st5" d="M714,507.4c25.8-7,51.7-15.9,77.8-26.1c2.7-3.2,31.9,1.4,27.6-10.5c-57.1-25.4-128.4,7.9-175.3,37.4
		C667.5,540.3,668.4,521.5,714,507.4z"/>
	<path class="st5" d="M603.5,528.4c11.1,5.9,33.1-6.6,14.8-18.2C610.5,510.9,574.5,517.4,603.5,528.4z"/>
	<path class="st5" d="M510.1,332c3.4,18.4,18.4-7.2,57.9,1c2.3,3.2,31.3-17.9,22.7-4.4c-22.1,20.1,11.6,5.6,6.7,25.3
		c-54.5-20.5,75.7,82.8,22.3,16.2c-27.8-36.2,13.7-46.6-18.4-56.4c-3.5-6,59.4-17.1,99.6,23.5c5.5,7.8,24.1-10.9,20.2,5.1
		c8,0.7-64.3,45.2-56.1,50.9c11.3-8.3,20.3-1-0.3,10.9c-4.3,2.2-26.6,21-12.3-0.8c-7.4-3.9-52.2,36-46.9,53.7
		c0.5,1.6,203.7-97.9,152.5-116.5c-6.5-5.5-50.3-44.8-77.2-36.1c-12.5,3.1-21.4-18-41.5-30.6c-15.8-12.5-36,14.9-56.8,25.1
		C558.9,302.5,514.2,299.1,510.1,332z"/>
	<path class="st5" d="M857.8,379.3c-163.8-29.6-100.3,23.7-164.9,65.4c-35.4,20.5-81.2,22.7-111.6,54.2
		C535.4,553.6,851.8,407.6,857.8,379.3z M755.6,390.8c-0.9,1.3-2.7-1.6-0.2-1.1C755.4,389.8,755.8,390,755.6,390.8z"/>
	<path class="st5" d="M452.2,377c7,14.7,10.7,9.6,136.5,56.6c20.5,4.9,29.8-17.9,1.2-17.1C555.1,407.6,500.8,330.5,452.2,377z"/>
	<path class="st5" d="M520.7,435.7c6.9,12.8,75.4,55.9,74.1,11.2c-0.2-11.3-24.5-11.7-38.1-17.8C557.1,431,488.6,390.9,520.7,435.7z
		"/>
	<path class="st5" d="M565,398.2c-3.1,0.3,45.2,19.1,47.6,9.9c-12.6-16.2-53.2-21.3-42-53.6c-14.8-0.7-28.6,7.7-43.9,6.5
		c-2.7-4.3-12.8-14.8-12.4,0.4C531.8,371.2,545.7,388.8,565,398.2z"/>
	<path class="st5" d="M708.3,419.1c-2.3-7.3-17.9,2.8-92.8,40.9C576,486.3,719.6,437.4,708.3,419.1z"/>
	<path class="st5" d="M678.6,348.3c-73.3,86.9,39.6,4.7,16.6-8.4c0.5-4.5-47.2-34.1-21.6-6.6C675.4,338,679.2,342.6,678.6,348.3z"/>
	<path class="st5" d="M593.9,390.1C593.9,390.1,593.9,390.1,593.9,390.1L593.9,390.1z"/>
	<path class="st5" d="M594,390.2c94.2,47.3-70-78.4-0.2-0.1C593.8,390.1,593.8,390.1,594,390.2z"/>
	<path class="st5" d="M656.7,331.2c-2.5-4.9-39.5-18.2-7.1,22.6C651.5,346.9,656.9,339.2,656.7,331.2z"/>
</g>
<g>
	<path class="st6" d="M982.7,890.8c-1.3-1.8,2.7-79.7-19-64.9C902.3,856.7,967.8,960.8,982.7,890.8z"/>
	<path class="st6" d="M963.7,825.9C963.7,825.9,963.7,825.9,963.7,825.9L963.7,825.9z"/>
	<path class="st6" d="M347.7,945.2c-6.4,4.3,3.4-91.6-34.4-82.8C306.1,867.5,313,990.9,347.7,945.2z"/>
	<path class="st6" d="M778.6,983.6C778.6,983.6,778.6,983.6,778.6,983.6L778.6,983.6z"/>
	<path class="st6" d="M778.4,983.5c-32.3-20.9-0.8,43.5,14.9,44.4c8.3-40.8-33.3-14.7-8.8-35.1c1.1-3.7-2.3-6.6-5.9-9.2
		C778.6,983.6,778.6,983.6,778.4,983.5z"/>
	<path class="st6" d="M585.2,1021.8c2.3,8.9-1.5,53,12.5,12.2c-5.1-16.9-17-38,12.5-31.6C617.6,974.5,583.9,985.7,585.2,1021.8z"/>
	<path class="st6" d="M536.3,1012.3c-1.8-9.1,30-10.3,11.9-22.1c-26.9-5.4-30.4,92.8-11.2,30.6
		C537.4,1018.4,536.1,1015.7,536.3,1012.3z"/>
	<path class="st6" d="M711.2,1002.1c0.6,1.3-0.3,6.6,3.1,6.4c-6.4-5.9,22.5,68.1,20.1,1.2C739,992.7,714,967.3,711.2,1002.1z
		 M721.8,999.6c5.7-0.4,5.9,5.2,7.7,9.4c-4,15.6-14.2,4.2-8.5-9.3C721.2,999.7,721.5,999.6,721.8,999.6z"/>
	<path class="st6" d="M665.5,1002.8c-8.8-22,1.5,23-12.4,20.5c-6.5-6.3-5.6-18.6-2.8-28.2c-7.9-5.5-9.6,23.3-3.8,25.7
		c-0.2,14.5,9.3,56.9,14.4,7.3C663.5,1023.8,665.3,1011.2,665.5,1002.8z"/>
	<path class="st6" d="M807.8,1102.4c-20.2,26.4,0.9,3.1,17.4-9.9C826.6,1089.1,800.3,1087.6,807.8,1102.4z"/>
	<path class="st6" d="M608.2,1091.4c-5.5-10.3-5,16.3,0.1,5.6C608.4,1095.6,609.2,1093.8,608.2,1091.4z"/>
	<path class="st6" d="M583.1,1089.9C583,1089.9,583,1089.9,583.1,1089.9C583.2,1089.9,582,1089.9,583.1,1089.9z"/>
	<path class="st6" d="M480,808.4c52.2,10.9,60.5-64.1,25.3-97.8c-4.2-5.3-8.6-12.8-6.3-20.5c9.6-33.4,42.9,70.5,34.5,84
		c-32.5,62.7,19.9,25.4,27.8-12.7c0.4,1.3,3.6-2.4,1.8-3.2c0.4,0,2.1-1.9,0.3-3.1c2.7,4.2,1-14.5-1-17
		c5.3-64.7-104-100.7-152.6-60.5C390.4,681.3,364.1,819.4,480,808.4z M434.3,694c-15.7,57.2-70.5-4.4-8.1-8.6
		C429.9,685.5,434.9,687.9,434.3,694z"/>
	<path class="st6" d="M903.4,751.3c-6.2-9.1,13.5-66.8-52-90.7c-24.4-9.2-102.2-8-114.5,31.5c64.7-59.6,48.7,62.2,1.6,1.4
		c-13.1-7.5-10,66.3,23.4,93c37.6,16.3,120.8,30.6,109.5-39.5c-4.3-11.4,5.5-18.8,8.3,0c3.3,2-9.5,40.2,2.8,38.6
		C887.5,784.2,901.9,764.8,903.4,751.3z M860.6,708.8c-2.3,5.8-9.9-0.9-13.7-5.8C833.2,691.8,845.4,656.6,860.6,708.8z"/>
	<path class="st6" d="M615.3,1297.6c-53-61.2,83.5-53.1-144.4-105.2c-2.8,4.4,96.4,33.2,44.7,28.3c-11.7,10.5,23.8,17.4,34.3,18.1
		c20.2,2.7-2.8,14.7,28.4,16.6c13.4,9.2-16.2,6.9-23.8,5.1c-6.5,7.5,17.7,6.2,6.2,20.1C573.4,1293.3,597.6,1302.9,615.3,1297.6z"/>
	<path class="st6" d="M830.7,1170.7c-15.3,6.2-42.6,9.5-53.9,17.8c-136.9,26.7-59.6,42.5-73.2,82c-41.5,71.1,48.7,12.7,46.2-21.6
		c8.1-3,23.7-3,27.5-14.7c0.4-6-30.2,6.1-12.4-9.1c6.2,3.7,65.2-24.7,26.6-24.7C799.1,1185.1,829.6,1189.1,830.7,1170.7z"/>
	<path class="st6" d="M501.2,1140.2c0.1,9.7,1.7,14.8-11.4,24.2c7.1,6.4,10.5-7.4,16.8-6c5.6,20.7,4.3-17.4,4.4-28.6
		C506.9,1139.9,498.4,1121.4,501.2,1140.2z"/>
	<path class="st6" d="M647,370.4c4.7,6.5,11.8-2.8,15.5-8.2C676.4,345.7,656.8,301.3,647,370.4z"/>
	<path class="st6" d="M676.8,391.1c-0.9-8.4-34.2,16.2-28,22.2c8.2-2.3,15.1-9.6,23.6-14.7C674,396.9,677.9,395,676.8,391.1z"/>
	<path class="st6" d="M523.8,359.1c-0.7,4.8,29.5,0,22.1-1.8c-29.4,6.9-8.5-18.8,22.6-11.9C583.6,344.1,528.5,335.9,523.8,359.1z"/>
	<path class="st6" d="M647.6,1136.6c0,0.2,0,0.7,0,0.6C647.8,1136.8,647.8,1136.6,647.6,1136.6z"/>
	<path class="st6" d="M469.1,1099.7c0.2,0,0.7,0,0.6,0C469.4,1099.6,469.1,1099.7,469.1,1099.7z"/>
</g>
<g>
	<path class="st7" d="M869.9,1187C870,1186.9,870,1186.9,869.9,1187L869.9,1187z"/>
	<path class="st7" d="M915.7,1134.9c-3.2-39.8,4.2-21.1-21.1-72.3c-5.3,3,4-92.1-9.1-79.1c-22.4,36.6,32.3,115.9-39.7,155.3
		c-43.2,20.7-90,32.6-134.8,50.5c-13.2,20.5-79,27-107.1,14.6c-11.5-5.8-27.2,4.2-37.9-8.4c-26.7,0.1-48.5-16.6-76.4-20.1
		c-15.9-14.9-39.3-17.6-57.6-32c-24.8-35.6-20.2-44-16.3-129.3c4.1-14.9-18.9-23.5-19.3,2.5c-9,32,10.1,70.7-10.4,98.7
		c12.2,133.6-23.8,12.4,163.7,176.4c156.5,157.2,127.2,31,320.3-104.8C884.8,1170.8,918.2,1162.8,915.7,1134.9z M432.6,1164.1
		c-4.2,14.4-35.7,1.5-25.4-19.6C408.7,1137,432.5,1155.3,432.6,1164.1z M844.7,1168.1c-0.6,8.6-9.8,4.4-24.7,26.3
		c-4.2,14.5-19.2,16-28,28.6c-1.5,9.4-62.1,83.5-96.5,83.3c-31.6,24.6-18.2,59.5-66.5,8.2c-18-24.7-19.6,22.8-100.1-67.7
		c-103.5-82.4-106.2-76.5,30.8-38.4c29.4,6,36.1,17.6,70.3,24.4c42.4,12.1,73.7-28.6,113.5-42.3c19.9-7,41.4-10.3,62.6-16.7
		C814.8,1173.3,839.1,1148.2,844.7,1168.1z M559.6,1208.4C559.6,1208.4,559.6,1208.4,559.6,1208.4L559.6,1208.4z M894.9,1121
		c-1.5,8.2-8,16-14.7,22.4C851.2,1161,889.7,1097.2,894.9,1121z"/>
	<path class="st7" d="M695.5,1306.4C695.4,1306.4,695.4,1306.5,695.5,1306.4L695.5,1306.4z"/>
	<path class="st7" d="M595.5,204.2c11.1,18.2,21.6,61.7,51.5,51.7c-3.6,17.1,14.9,38.9,34.8,44c21.5-0.3,24-8.1,9.2-84.6
		c-7.3-16.2-31,39.8-38.4,26.4c2.6-16.7,55-64.1,2-52.3C648.8,193.8,587.2,179,595.5,204.2z"/>
	<path class="st7" d="M240.6,622.2c21.3,8.9,5.3-24.5,17.3-29.8c4.4,3.5,0.7,36.3,15.5,13.6c0.5-2.9-18.9-16.8-4.8-17.3
		c19.1,11.6,31.9,9.7,53.4-7.7c19-13.3,18.4-12-42.9-45.3C244.7,521.6,226.9,489.1,240.6,622.2z"/>
	<path class="st7" d="M955.6,386.7c-52.8,54.4-1.7,29-9.5,55.3c-3.6,10.5-50.2-5-32.5,19.2c-0.5-1.6,84.7,6.4,97.3-6.5
		C1004.2,451.9,972.4,347.6,955.6,386.7z"/>
	<path class="st7" d="M242.6,476.9c19.3-6,19.3-1.6,23.8,16.9c56.8-11.6,76.1-11.2,6.8-34.8c-17.1-5.7,36.9-8,57.6-22.6
		c3.5-15.2-9-23.2-24.3-35.3c-9.5,7.2-13.9,20.3-22.7,30c-17.3,24.2-37.6,21.1,9.2-46.4c-8.5-14.2-22.9,21.6-29.5,33.3
		C255.3,436,247.3,456.2,242.6,476.9z"/>
	<path class="st7" d="M263.5,417.9C263.5,418,263.5,418,263.5,417.9L263.5,417.9z"/>
	<path class="st7" d="M952,345.8C952.1,345.9,952,345.8,952,345.8L952,345.8z"/>
	<path class="st7" d="M882.5,335.7c-1.2,20.9-18.1,48.2,22.2,36.6c8.2-5.4,67.4-5.6,47.4-26.6C927.5,317.8,900.5,256.1,882.5,335.7z
		 M907.4,325.7c15.3-12.6,40.9,52.8,5.1,9.9C910.8,333.4,905.9,330.5,907.4,325.7z"/>
	<path class="st7" d="M1034.4,615.6c-2.5-15.9-23.5,4.8-41.9,11.4c-22.3,11.1-57.1,26.4-6.4,44.2c-7.5,1.7,24,41.5,31,15.5
		C1027.2,670.4,1029,643,1034.4,615.6z"/>
	<path class="st7" d="M1017.1,686.6C1017.1,686.6,1017.1,686.6,1017.1,686.6L1017.1,686.6z"/>
	<path class="st7" d="M380.6,287.6c14.1,4.9-1.1,3.9,45.6-25.3c12.8-2,66.6-34.8,17-20.7C444.4,241.1,372.7,273.6,380.6,287.6z"/>
	<path class="st7" d="M486.4,227.6c-11.7,13,138.7-37,67.7-31C555.3,198.2,482.6,215.4,486.4,227.6z"/>
	<path class="st7" d="M969.6,811.3c1.8-12.3-39.9-52.3-32.8-22.8c9.8-10.3,5.8-3.9,20,15.6c3.5,8.4-8.4,13.8-16.4,7.7
		C929.6,830.7,965.4,829.8,969.6,811.3z"/>
	<path class="st7" d="M298.4,364.4c12.4,26.4,37.7-34.3,16.1-22C310.6,350.2,298.3,354.2,298.4,364.4z"/>
	<path class="st7" d="M958.8,919.6c-23.6-28.1-54.6,47.8-24.7,34C916.2,926.8,938.9,923.3,958.8,919.6z"/>
	<path class="st7" d="M1004.6,710.9c9.4,0.1-67.7-51.6-64.9-62.9c17.8-19.1,49.7-24.7,66.9-45.9c6.2-16-13.5-20.1-25.6-8.9
		c-60.1,63.9-155.9,0.9-224.7,43.5c-3.7,6.4-27.6,10.9-16.5,29.3c16.9,1.9,30.9-18.1,50-12.7c7.2-1.6-8.8-3.7,1.4-11.2
		c20.6-9.6,90.1-15.1,95.6,13.5c-12.1,1.7-23.2-10.7-36.9-11.6c-1.9-0.4-37.3,1-14.1,5c96.8,0.3,72.8,80.6,62.4,147.8
		c-6.3,22.9-117.4,55.8-122.8,22.3c6,3.1,77.6,2,34.5-0.6c-119.9,5.9-151.7-169.9,4.8-230c43.2-7.1,87.1,2.5,130.5,2.4
		c8.2-1.9,18.1,0.2,25.7-5.3c13.8-14.2-48.9-16.4-36.7-32.6c19,4.5,43.8,15,67.6,19.2c31.8,3.1,31.1,30.4,27.3-45.9
		c-5.1-60.5-10.9-46.3-67.9,9.8c-39.4,18.4,68.1-62.5,35.2-63.6c-18.2-5.6-85.1,6.4-106-13.2c-3.7-2-33.9,6.3-60.2,12.1
		c6,14.8-7.2,7.6,3.2,22.7c16,13.2,87.8,74.2,7.5,40.1c-21.2-3.2-38.8,0.1-64.6-14.4c0.5,4.8-63.2-37.4-20.7,9.1
		c0.7,1.4,11.2,5.9,4.4,8.8c-2.9,1.3-44.4-21.7-34.5-2.6c3.4,4.4,14.7,57.6-2.1,25.2c-7.9-23.2-30.5-43-23.9,51.3
		c-5,23.9-7.6-20.7-14.7-37.7c-12.5-16.3,2.6,80.3-12.8,54c-1.5-1-2.4-53.1-12-49.6c-17-8.2-1.9,64.6-15.3,53.6
		c-1.2-6.2-4.1-12.9-4.5-20.4c-4.4-7.8-2.6-51.6-21.4-29.7c-9.8,21.4-6.9,39.7-6.5,68.8c-13.7,6.8-4.9-71.5-18.9-75.8
		c-24.4,5.2-11.7,38.8-17.8,69.4c-7.6-1.3-4.7-17.2-6.2-26.7c-1.1-27.3-4.6-117.4-26.6-26.1c-0.1,1.9-4.7,15.7-8.4,7.4
		c-8.9-17.9,14-43.1,2-57.6c-7.5-6-15.7,4-17-16.5c-25.2-27.1-50.2,33.7-117.9,25.3c-73.5,13.3,69.1-64.9-28.6-58.8
		c-31-6.1-8.9-9.7-92.4,8.7c-69.3,22.3,126.4,55.5,55.5,81.6c-5.2,2.5-16.5,17.2-1.2,15.9c10.5,1.4,121.8-13.2,170.4,16.5
		C563,654,606.2,754.6,536,812.1c-28.8,15.5,15,1.2-4.3,24.2c-33.8,5.7-25.3,24.7-114.4-0.1c-1.6,1.3-45.8-24.4-23-23.8
		c25.6,18.8,60.8,27.3,92.5,18.9c-21.4-1.2-80.7-5.3-107.1-37.5c-6.7-3.9-23.8-76.8-2.5-103.1c11.4-31,67.4-42.4,155-25.7
		c13.3-37.1-129.9-19.2-166.6-30.3c-16.1,8.7-9.1,27.2-38.3,46.6c-12.2,12.9-15.3,46.3-33.1,51.5c-18.5-21.4,24.4-20.6,23.3-57.4
		c-15-0.9-96.1-44.3-74.9,2.5c0,2.7,27.2,66.3,46.7,59.9c-3,4.9,0,12.9,6,17.4c16.9,16.6,27.2-1.6,27.5-23.6c1.9-5,15.7-31,11.9-5.1
		c9.4,18.9-20.2,62.7-3.8,75.2c7-5.1,21.2-2.1,24.6,7.4c-6.2,42.5-44.1,17.5-6.9,88.6c2.6,6.3-1.9,13.1,1.4,19.6
		c10.7-5,34-15.9,52.5-9.8c10.5,30.5-18.4,27.6-59.7,41.7c-20.4,11.8,10,35.5,32.5,33.2c8-2.5,2,9.5,22.8,8.6
		c21.7,0.8,34.5-21.4,55.6-27.9c8.2-12.4,103.4-0.1,82.6,18.2c-0.9,0.7-62.4-38.4-37.7-1.8c1.4,8.7-17.1-10.8-33.9-8
		c-23.7,6.3,27.6,14.2-25.1,16.9c-15.5,7.9,1.8,39.4,14.4,53.2c17.7,4.7,41.6,5.2,54,23c7.8,13.4,12.1-0.9,26,1.3
		c17.6,12.4,3.2,8.5,32.9,7.6c16,11,10.8-0.2,31.7,0.2c15.5,9.5,87.8-1.7,152.1-3.5c10.8-6.3,22.3-8.3,35.6-10.7
		c12.9-7.2,23.7-18.4,42.1-17c0.6,10,81.2-91.2-8.7-63.8c4.4-20.9-21.9-3.8-32.6-8.8c1.2-5.7-2.4-11.6-10-11
		c-5.8-3.9-60.1,40.6-35.1,6.3c41.8-44.1,167.7,46.4,178-36.8c-2.1-11,12-10.7,16-20.8c4.1-7.3-0.7-19.2-7.2-26.9
		c-34.9-9.7,32.2,17.2-23.2,35.7c-14.5,5.8,3.8,5.3-5.9,10.7c-44.2,3.9-54.8-7.6-9.3-40.3c9-6.3,22.9-8.9,1.7-18.9
		c-83.2-43.3,44.4-35.4,40.1-53.6c-13.4-92.5,26-1.7,10.2-72.1C947.3,680.9,952.9,802.8,1004.6,710.9z M279.4,686.1
		c0,0.1,0,0.1,0,0.1c-0.1-0.4-0.2-0.5-0.2-0.5S279.3,685.8,279.4,686.1z M287,711.3c-5,14.7-27.8-27.2-30.4-38.3
		c4.4-14,13.7-3.2,16.4,9.7c-1.2,2.1,0.5,7.5,4,8.9C273.2,692.9,286,701.9,287,711.3z M340.8,858.1c-7.6-1,5.2-12.2,11.6-16.7
		c3.8-0.9,6.9,7.5,20.5,6.4C428.5,859.3,360.3,851.9,340.8,858.1z M394.8,872.1c-15.9,15.5-47.6,47.4-53.2-2.2
		C337,864.1,391.9,854.3,394.8,872.1z M461.7,1016.2c-3.1,23-28.1-19-15.5-25.6C453.5,988.8,461.1,1005.5,461.7,1016.2z
		 M763.4,984.1c1.4-6.5,9.9-5.2,15.2-0.5C809.7,1031.3,789.5,1052.5,763.4,984.1z M532.4,836.9c0.1,0.2,0.6,0.4,1.3,1.7
		c0,0-0.5-0.9-1.4-0.7C532.3,837.8,533.2,837.7,532.4,836.9z M532.4,843.4c0.3,0,0.6-0.1,1-0.4C533,843.3,533.3,843.3,532.4,843.4z
		 M553.4,997.5c-19.2,16.4,7.4,1.6-16.3,23.4C513.4,1091.7,527.9,958.1,553.4,997.5z M611.5,995.9c-2.5,9.5-8.9,21-15.3,30.4
		c2.9,3.3,0.8,20.7-6.8,24C576.8,1042.9,592.9,958.2,611.5,995.9z M665.5,1005.4c-0.5,10.3-3.5,20.2-6.3,31.5
		C652.9,1096.8,626.7,948,665.5,1005.4z M735.1,1010.3c-0.6,43.8-12.7,29.6-24-8.2c0.5-25.7,22.7-21.9,23.9,6.4
		C735.2,1009.8,735.1,1008.7,735.1,1010.3z M845.6,861c-7.4,48.4-56.3,17.8-65.7,31.7c-13.4,58.5-102,9.6-42-13
		c30.6,4.3-17.2,4.8-9.6,24.2c5.1,19.6,52.6,11.2,37.4-20c-8.1-23.6-35.2-22.5-56.9-30.5c-51.6-29-7.5,6.9-10.5,66.5
		c24.5-3.3,4.5,49.2-27.4,51.3c-22.8,6.2-55,0-69.3-23c-3.3-5.8-14.7-24,0.9-25.3c-13.6-32.7,56.1-116.1-1.1-78.4
		c-22.2,14.6-50.1,20.2-70.6,38.6c-13.6,16.5-10.8,48.5,22.9,43.4c23.7-13-3.7-38.3,14.2-31.6c25.2,31.3-44.9,64.4-55.8,9.5
		c-0.6-11-13.2,5.7-38.3,12.4c-28.1-3.6-51.6-36.9-14.1-58.8c18.1-10.1,60.7,1.5,29.3,27.5c-27.7-3.6,15-18-13.2-24.9
		c-34.9-2.2-31.2,57.4,9.5,42.9c46.2-33.8,109-50.4,147.3-95.8c16.2-15,6.8-39.2,18.3-55.5c15.4-5.8-6.2,65.1,73.2,100.7
		c24.7-0.5,28.2,6.6,53.1,23.8c78.5,31,68-60.3,27.8-17.8C790.8,847.3,840.3,825.3,845.6,861z M940.7,687.8
		c0.7,40.3-29.5-44.2-21.2-48.5C927.9,639,940.5,669.8,940.7,687.8z M991.7,708.9c0.1,0.2,0.2,0.3,0.4,1.3c-0.1-0.3,0-0.4-0.5-1.4
		C991.6,708.8,991.6,708.8,991.7,708.9z M991,707.7c0.1,0.1,0.1,0.3,0.2,0.4c-0.3-0.4-0.1-0.3-0.8-1.1
		C990.7,707.2,990.8,707.5,991,707.7z M987.3,704.6c0.6,0.4,1.3,0.5,2.6,1.8c-0.5-0.4-1.4-1.3-3-1.9
		C987.1,704.5,987.2,704.6,987.3,704.6z M986.5,704.3c-0.2-0.1-0.1-0.1-1.1-0.3C985.9,704.1,985.5,703.9,986.5,704.3z M978.1,703
		c-0.1,0-0.1,0-0.2,0C978,703,978.1,703,978.1,703z M976.5,703.2c0.1,0,0.2,0,0.2,0c-0.4,0-0.4,0-0.4,0
		C976.4,703.2,976.4,703.2,976.5,703.2z M976.3,703.2c0,0-0.1,0-0.2,0C976.4,703.2,976.3,703.2,976.3,703.2z M986.8,723.1
		c-0.6,0.7-1,1.4-2.6,2.5c0.7-0.5,2.1-1.7,3.1-3.2C987.2,722.5,987.2,722.5,986.8,723.1z M988.8,720.1c-0.2,0.3-0.3,0.5-0.5,0.8
		c0.1-0.2,0.1-0.2,0.6-1C988.9,719.9,988.8,720,988.8,720.1z M990,717.8c-0.1,0.1-0.1,0.3-0.2,0.4c0.1-0.1,0.1-0.1,0.3-0.7
		C990.1,717.6,990.1,717.7,990,717.8z M990.6,716.6c-0.1,0.1-0.2,0.4-0.3,0.6c0.2-0.4,0.3-0.6,0.9-1.8
		C991,715.8,991.1,715.7,990.6,716.6z"/>
	<path class="st7" d="M339.9,380.8c34.3,6.4,78.2,38.5,48.9-28.1c-3.4-9.1-20.4,10.6-29.8,17.3C358.9,372,335,375.4,339.9,380.8z"/>
	<path class="st7" d="M933.1,861.1c24.7-42.5-29.8-36.5-46.2-23.5c34.7-7.5,66.4,13.4,19.3,30.7C914.3,873,931.7,876,933.1,861.1z"
		/>
	<path class="st7" d="M878.1,910.1c25.6-23.2,24.4-31-7.6,2.7C865.7,917.5,888.6,929.6,878.1,910.1z"/>
	<path class="st7" d="M877.7,840.5c-19,0,3.3,20.3,15,19.8C890.8,855.9,877.6,849.7,877.7,840.5z"/>
	<path class="st7" d="M322.2,388.6c-19-5,37.3,79.4,53.9,27.9C425.4,404.1,371.5,402.2,322.2,388.6z"/>
	<path class="st7" d="M453,376c7-10.6,53.6-10.4-62.9-66.9c-8.9,9.2,15.4,61.6,25.2,92.4c3.1,8.5,22.1,0.2,32.1-3.5
		C455.2,393.1,431.3,387.8,453,376z"/>
	<path class="st7" d="M473.6,255.2c27.1,146.3,12.8,77.4,38.4,64.3c5.8-2.3,18.4-8.1,18.7-16.7C530.3,305.5,475.6,224.1,473.6,255.2
		z"/>
	<path class="st7" d="M530.7,302.8C530.6,302.8,530.6,302.7,530.7,302.8L530.7,302.8z"/>
	<path class="st7" d="M549.2,266c2.8-21.6,31.9-54.6-13.7-36c-42.7,16.9-50.8,3.2-14.2,48.7C538,306.3,539.8,295.5,549.2,266z"/>
	<path class="st7" d="M703.9,214.7c1.1,40.6,1.2,74.3,51.2,30.1c23.3-15.3,60.9-19.2,3.4-36C743.4,207.9,697.9,178.6,703.9,214.7z"
		/>
	<path class="st7" d="M787.8,241.4c-15.9,3.3-20.1,14.1-36.4,21.9c-65.7,37.7-51.9,32,12,73.2c49.1,27.8-45,26.2,83.4,34.9
		c29.7-5.2,11.7,1,30.4-53.4c18.8-46-9.5-12.1-51.5,3.4C758.8,377.9,823.8,237.1,787.8,241.4z"/>
	<path class="st7" d="M751.4,263.2C751.4,263.2,751.4,263.2,751.4,263.2L751.4,263.2z"/>
	<path class="st7" d="M808.4,286.1c4.7,10.3-10.2,45.6,26.9,21.9c27.4-18.2,76.5-24.4,18.7-54.7
		C814.3,233.4,808.4,218.3,808.4,286.1z"/>
	<path class="st7" d="M608.7,245.6C608.7,245.6,608.7,245.5,608.7,245.6L608.7,245.6z"/>
	<path class="st7" d="M571.2,231.7c-4.7,20.9-41.3,79.8,12.5,57.9c16.7-12.6,46.4-16.2,25-44.1C600.4,231.2,585.3,189.2,571.2,231.7
		z"/>
	<path class="st7" d="M848.2,396.5c-68.3,44.9,16.6,2,64.8,19.5c5.8-4.2,52.9-46.5,15-39c-14.2,0-27.6,5.1-42.1,7
		C873,384.4,859.5,387.8,848.2,396.5z"/>
	<path class="st7" d="M325.4,626.9c-17.1-0.5-31.8-16.2-50.5-1.7c-5.1,5.1-26.7,3.7-22.6,16.4c23.1,9.9,50.2,22.3,76.6,16.3
		C347.6,660.1,362.7,630,325.4,626.9z"/>
	<path class="st7" d="M784.3,1086.1c0-0.2,0,0-0.2-0.7C783.8,1085.5,783.3,1085.6,784.3,1086.1z"/>
	<path class="st7" d="M683.9,1159.3c8.4-11.7-16.8-4.9-17.6,2.4c23.9,3.7,0.4,28.6,21.4,28.3
		C719.3,1183.9,682.2,1185.1,683.9,1159.3z"/>
	<path class="st7" d="M588.6,1175.9c1,8.3-8.8,12-15.8,4.2c-5.7,6.5,21.8,18.1,18.9-5.8c7.9-9.8-1-33.1-15.1-25.2
		C582.3,1157.3,588.8,1149.8,588.6,1175.9z"/>
	<path class="st7" d="M495.2,1156.8c-1.1,4.2-15-0.2-6.3,5.5C503.1,1163.5,505.8,1126.7,495.2,1156.8z"/>
	<path class="st7" d="M462.4,258.9c-5.1,8.2-80.4,35-51.4,48.8C478.3,347,484.9,359.8,462.4,258.9z"/>
	<path class="st7" d="M496.7,1127.1c1.4,1.4,0.6,3.6,3.5,5.2C504.3,1130.7,494.1,1120.8,496.7,1127.1z"/>
	<path class="st7" d="M469.4,1096.9c-4.8-6-8.9-13.3-12.4-20.7C455.1,1080,457.5,1099.1,469.4,1096.9z"/>
	<path class="st7" d="M456.3,1074.5c-0.3-0.4-0.5-0.6-0.6-0.6C456,1074.3,456.2,1074.5,456.3,1074.5z"/>
</g>
<g>
	<path class="st8" d="M743.4,521.6c-12.9-26.8-49.2,3.7-71.1,15.8c-11.9,1.7-21.9-7.7-34.2-5.1c-17.9,2.4-29.7,27.1-54.4,14.9
		c-38.8-39.1-8.7,8-10.9,44.3c6.2,7.5,6.1-8.4,13.4-14c18-29,8.9,39.8,20.6,43.1c6.1,6.6,8.9-81.1,32.1-31.3
		c2.7-7.8-12-36.1,8.3-14.1c2.7,32.1-3.2,11.5,9.3-4.3c7-1.9,6.4,19.5,16.4,9.2c2.6-72.1,20.3,40.5,27.5-29.2
		c5.5-27.2,13.5,0.7,22.6-6C720.3,509.2,738.7,541.8,743.4,521.6z M609.8,604c-0.3,0.1,0,0-0.3,0.4C609.4,604.1,609.5,604,609.8,604
		z"/>
	<path class="st8" d="M383.5,457.8c-4-2.6-54.2,9.3-43.2,27.2c9,6.8,105.5,4.9,65.7-22.2C397.8,457.2,402.1,474.5,383.5,457.8z"/>
	<path class="st8" d="M854.3,513.6c-14-11.6-24.6-35-46.5-28.7C776.9,492.8,845.2,517.7,854.3,513.6z"/>
	<path class="st8" d="M501.5,508.3c-5.6-9.3-18.6-11.7-27.4-6.4c-2.4-2.5-12.6-15.1-15.2-5c-32.1-16.8-65.8,20.6-78.2,50.3
		c11.2-10.1,25.4-18,38.3-28.7c15.2-14.9,13.9,1.1,0.5,13.8c-5.8-0.3-16.2-2.3-18.2,7.7c-0.8,9.2,33.2,2.1,50,0.7
		c10.1-2.5,12.2-14.8,25-23.5C485.3,525.8,501.4,522.4,501.5,508.3z"/>
	<path class="st8" d="M516.1,517.2c-0.3-3.6-11.4-4.3-9.7-0.3C508.9,514.1,519.4,522.7,516.1,517.2z"/>
	<path class="st8" d="M501.1,618.6c9.7-16.9-206.9-29.8-182.4-1.2c20.9-10,2.7-7.4,61-0.1c-9.6,18.4,1.1,12.3,19.5,10.3
		c4.7,11.8,37.6,2.1,19.9-7.9c-2.2-0.6-1-3.6,2.5-3.4C445.7,612.9,480.4,623.7,501.1,618.6z"/>
	<path class="st8" d="M911.9,612.8c-9.5-19.7-33.4-0.7-32.7-10.7c66.1-9-7-12.7-37.7-10.8c-55.7,0.2-1.3,28.9,25.9,22.7
		c8.6,2.6,18.3,10.5,27.1,0.5C897.8,614.5,913.9,626.7,911.9,612.8z"/>
	<path class="st8" d="M841.5,591.3C841.5,591.3,841.5,591.3,841.5,591.3L841.5,591.3z"/>
	<path class="st8" d="M921.9,428.3c-9.2-28-166.9,7.5-106.8,10.9c9.5,3.2,39.9-14.8,47.5-2c0.7,14.4,3-7.5-42.6,7.5
		c-11.7,4.3,20.8,33.9,49.8,9.1c50.2-0.4-5.1-23.4,22.5-22.5C888,429.9,921,434.5,921.9,428.3z"/>
	<path class="st8" d="M787.7,461.9c5.6,4.7,34.6-7.1,13.7-11.7C797.9,447.2,785.1,460.2,787.7,461.9z"/>
	<path class="st8" d="M816.7,524.4c6.8-2.3,1.7-27.7-17.9-18.2c-4.1-0.5-5.2-10.1-12.3-7.7C776.1,517.2,802.2,522.9,816.7,524.4z"/>
	<path class="st8" d="M321.8,469.2c-6.9,14.2,138.9-56.6,9.6-22.5C304.6,456.1,343.8,445.6,321.8,469.2z"/>
</g>
<g>
	<path class="st9" d="M523.1,630.8c-30.9-42.6-101.3-34.6-195.2-34.2c-6.9-1.8-14.7,0.6-22.4-0.5c-85.7-18.1,1,41.1,59.1,33.4
		c14.4,17.6,88.4,5.5,142.3,13.9C523.7,645.9,497.9,638.4,523.1,630.8z M501.1,619.9c8.8,5.5-80.5-11.7-82-0.2
		c13.3,3.4-1.2,16.1-12.2,13.8c-4.2-1.3-6.5-9.2-14.2-5.3c-33.1,8.6-4.9-11.3-15.5-11.7c-13.6-1.2-27.7-2-41.4-6.2
		c-7.3-3.1-12.1,11.4-19.7,5.5c-21.9-17.1,140.3-21.9,175.7-3.7C494.8,614,500.9,614.9,501.1,619.9z"/>
	<path class="st9" d="M972.3,598.6c-48-10.4-103-15.3-155.4-10.4c-5.7-2.3-80.9,36.6-40.5,38.1c21.1-5.3,42.6-5.6,65.1-5.5
		C883.5,623.1,941.1,634.3,972.3,598.6z M912.3,615.8c-6.8,11-10.2-7.5-26.6,3.8c-9.7,0.1-18.6-10.1-28.9-3.8
		c-0.5,3.6-79.7-22.4-15.3-24.5c12.9,0.1,110.1-3.2,37.6,12.5C879.6,611.7,902.2,589.9,912.3,615.8z"/>
	<path class="st9" d="M795.9,463.8c9,5,81.1,6.6,113.2-14.4c10.1-7.8,29,3.6,37.9-9c-6.5-36-107.1-34-137.9-15.3
		c-48.9,38.9,57.5-38.4,112.9,4c-81.1,1.4,7.7,19-52,24.6c-30.1,28.9-96-19.1-6.6-13.6c-2.1-17.7-21.3,0.5-59.7-0.9
		C815.3,447.8,809.6,458.2,795.9,463.8z"/>
	<path class="st9" d="M869.8,453.8C869.8,453.8,869.8,453.8,869.8,453.8L869.8,453.8z"/>
	<path class="st9" d="M278.4,459.5c16.2,11.3,48.4,19,61.8,24.1c-5.8-11.4,2.6-11.4,14.2-17.8c58-24.6,38.2-46.3-21.7-25
		C336.8,440.5,274.1,448.5,278.4,459.5z M321.7,466.6c5.5-8.1,16.8-5.6,0.2-15.3c5.3-12.1,107.2-20.9,43.2-0.4
		C365.6,451.2,323.4,483.4,321.7,466.6z"/>
	<path class="st9" d="M616.6,539.9c-38.3-11.2-71.4-43.5-78,22.7c-10.8,0.4-4.6,85.6,9.1,4.3c2-6,5.1-11.5,7.8-17.7
		c14.1-3.6,10.7,31.3,12.1,47.8c-1.4,4.5,1.7,13.1,1.7,20.5c0,0.2,0.9,39.2,8.1,23c-2.2,7.5,2.9-58.6-1.4-45.1
		c-9.1-4.6,2.8-43.2-16.3-55.2C567.8,511.9,587.8,576.4,616.6,539.9z"/>
	<path class="st9" d="M459.6,535.6c3.4,3.5-52.7,15.4-58,5.3c-0.2-10.4,12.2-8,19.6-9.3c2.2-1.9,24.1-36.5-9.2-7.6
		c-26.1,20.9-75.5,40.5,44.2,19.4c9.3-5.7,20.5-17.2,31.1-19.9C476.5,512.3,468.8,522.3,459.6,535.6z"/>
	<path class="st9" d="M388.8,487.5c-39.3,2.8,11.7,4.1,21,9.4c0,2.8-11.9,24.1,2.6,10.2c4.6-13,42.7-19.3,11.1-17.7
		c5.3-13.4,14.4-12.9-5.8-19c38.5-10.7-43.4-24.9-1.5-1.4C416.7,478.9,401.7,487.7,388.8,487.5z"/>
	<path class="st9" d="M651.1,612.2c-1.8-3,2.1-22.7-4.5-15c1.8-4.6,0.9-40.4-11.3-26.4c1.5,5.8,7.2,15.2,1.9,20.7
		C632.4,594.6,651.4,666.6,651.1,612.2z"/>
	<path class="st9" d="M569.4,617.6C569.4,617.6,569.4,617.6,569.4,617.6L569.4,617.6z"/>
	<path class="st9" d="M699.4,598.2c-1.4-7.2,0.9-27.7-3.3-24c-8.6,6.5-16.5-31.5-19.8-14.9c-9.6,8.7,5.1,16-10.6,26.3
		c2.5-1.8,3.1,54.1,11.5,46.5c6.3,3.9-5-85.2,10.3-50.8C688.1,589.2,699.6,644.5,699.4,598.2z M683.9,571.2c0,0.1,0,0.1,0.1,0.2
		C683.9,571.3,683.9,571.3,683.9,571.2z"/>
	<path class="st9" d="M732.8,565.7c-2.5-9.6-1.8-24.1-9.4-32.3c-3.8,6.9,6.2,6.8-5.2,15.1C717.8,548.1,730.6,582.7,732.8,565.7z"/>
	<path class="st9" d="M613.3,645.7c-1.3-6.1-1.5-12.7-1.6-20.3C597.5,599.8,606.5,670.3,613.3,645.7z"/>
	<path class="st9" d="M660.5,572.8c-0.4-1.7-5.8-3.4-6.7-0.4c0.5-2.9-4,8-1.6,5.2c-1.4,0.9-3.7,7.5-2.5,6.2
		C651.5,599.5,650.3,576.4,660.5,572.8z M649.5,582.5C649.5,582.5,649.5,582.5,649.5,582.5c0,0,0,0.1,0,0.2
		C649.5,582.6,649.5,582.6,649.5,582.5z"/>
	<path class="st9" d="M711.8,540.5c-3.8-9.2-19.1,14.6-5,1.8C707.6,540.6,714.4,543.5,711.8,540.5z"/>
	<path class="st9" d="M493.9,521.6c6.4-1.2,1.8-7.4-1.5,0C492.5,522.2,492.3,522.5,493.9,521.6z"/>
	<path class="st9" d="M533,536c-0.5,0.3-0.7,0.4-1,0.6c28.8-40.7-38.5-7.2-1.8,0.8C526.7,539.3,534.4,540.3,533,536z"/>
	<path class="st9" d="M726.5,526.9c1.4,0.6,0.9-3.4-0.7-1.1C725.9,526.3,725.7,526.2,726.5,526.9z"/>
	<path class="st9" d="M273.2,459C272.7,458.6,272.4,458.3,273.2,459C274,459.4,276.2,457.3,273.2,459z"/>
	<path class="st9" d="M275.7,457.4c-0.4,0.3-0.6,0.5-0.6,0.6C275.5,457.6,275.7,457.4,275.7,457.4z"/>
	<path class="st9" d="M701,546.4c0.1,0.2-0.1,0.2,0.3,0.9C701.4,547.2,701.2,543.8,701,546.4z"/>
	<path class="st9" d="M439,491.7c21.8,13.6,31.9-19.5,4.7-9.1C442.1,484.3,434.5,488.2,439,491.7z"/>
	<path class="st9" d="M765.6,511.9c35.3,12.3-14.4,10.2,81.5,24.8c36.9,18.8,43.2-0.3,6.1-22.2c-26.5,0.9-48.8-30.4-73.4-15
		C777.7,494.4,749.7,503.6,765.6,511.9z M783.9,502.4c3.3-10,9-0.7,14.9,3.7c10.2-4.5,20.4-1.9,20.9,14.5
		C822.6,525.4,783.6,527,783.9,502.4z"/>
	<path class="st9" d="M768.7,456.4c12.7,11.2,50.1-10.1,2.9-4.9C770.2,452.1,767.1,453.5,768.7,456.4z"/>
</g>
<g>
	<path class="st10" d="M384.4,395.8c-25.7-10.9-150.6-62-67.8,13.2c52.4,37.2-48.3-43.6,38.7-12.9
		C355.7,395.7,385.8,406.6,384.4,395.8z"/>
	<path class="st10" d="M411.4,390.7c3.3,0.8-37.9-82.5-17.5-82.5c25.8,10.4-17.8-40.9-25.4-11.6c-0.2,14.4,6.5,19.2,22.7,61.9
		C393.1,360.8,409.3,431.6,411.4,390.7z"/>
	<path class="st10" d="M346.8,566c-2.1-20.5-84.6-33.9-91.6-67.2c-10-7.5-26,14.6-2,21.9C250.4,515.8,346.7,582.6,346.8,566z"/>
	<path class="st10" d="M521.3,278.7C521.3,278.6,521.3,278.6,521.3,278.7L521.3,278.7z"/>
	<path class="st10" d="M532,294.2c-3-5-6.6-9.7-10.7-15.5c-10.2-17.7-72.5-96.5-54.3-23.1C490.6,225.4,524.1,315.5,532,294.2z"/>
	<path class="st10" d="M963.5,525c-15,8.1-19.5,31.4,18.9-10.5c17.3-10,31.7-47.1,45.4-13.3c-6-29.6,1.4-32.3-47.8-29.8
		c-2.6,3.5,22.9-4.4,23.7,7C990.6,492.7,980.1,512.4,963.5,525z"/>
	<path class="st10" d="M596.5,206.7c-26.2-53.8-50.8,70.8-23.5,22.5C580.9,199.3,592.8,222.6,596.5,206.7z"/>
	<path class="st10" d="M948.6,392.7c35.5-19.9-7.3-46.2-5.5-13.3C942.5,384,934.2,396.7,948.6,392.7z"/>
	<path class="st10" d="M248,635.8c4.1-3.6,26.8-6.7,17.1-17.1C257.1,611.1,213,645.9,248,635.8z"/>
	<path class="st10" d="M1029.7,602.2c2-10.5-54.7,15.6-35.1,20c-3,1.4-5.3,3.6-9.4,5.3c-7.2,4.9-38.5,13.9-27.5,31.3
		c1.9,7.5-14.7-2.8-8.2,2.4c8.5,4.2,14,12.2,21.5,18.1c-7.5-11.5,3.4-7.5,12.3-1.8c7.1-6.5-5.1-6.1-11.3-12.7
		c-39-23.2,30.3-36,43-50.2C1019,611.5,1028.1,609.1,1029.7,602.2z"/>
	<path class="st10" d="M714.8,273.2c-3.9-20-23.1-46.7-14-2.1c-4.5,7.5,6.7,21.3-9.9,27.9c12.7-2.9,15.9,10.9,20.1-11.1
		C712.4,283.9,715.4,278.5,714.8,273.2z"/>
	<path class="st10" d="M896.7,289c-7.1-21.9-22.5,40.4-27.4,54.4C879.6,357.6,893.6,305.9,896.7,289z"/>
	<path class="st10" d="M894.1,303.9C894.1,303.9,894,303.9,894.1,303.9C894.1,303.9,894.1,303.9,894.1,303.9z"/>
	<path class="st10" d="M329.3,667.4c4.2-0.8-54.2-19.8-80.2-21.6C238,657.6,276,663,287.9,665C284.6,664.7,332.5,677.1,329.3,667.4z
		"/>
	<path class="st10" d="M692.2,211.2c8.8,28.8,13.9-27.4-3.8-13.3C686.3,202.4,689.1,204.3,692.2,211.2z"/>
	<path class="st10" d="M810.7,233.9c-7.5-13.8-10.2,17-10.2,25.3c-6.5-34.9,23.3-41.2-96.2-70.5c-8.4-0.7-2.3-10.6-1.5,49.3
		c7.3,11.3-6.7-34.6,7-41.5c9.3-2.3,16.5,8.1,30.4,5.9c16.7,8.1,60.7,9.7,46.7,38.6c17.7-4,8.9,18,11.4,33.1
		c0.5,6.1-13.8,87.4,12.3,53C804.6,314.3,809,271,810.7,233.9z"/>
	<path class="st10" d="M490.2,348.8c-4.8,1.1-3.8-52.3-15-57.3c-4.8,3.1,2.6,22.4,2.6,41.9C475.3,344.2,476.2,379.6,490.2,348.8z"/>
</g>
<g>
	<path class="st11" d="M1036.2,589.1c-0.4-13.7-57.6-21-86.7-30.1c-4.7-1.5-10.2-13.2-16.4-4.6c-6.5,11.6,25,12.9,36,22.9
		c8.1,12.2,12.6,6.2,27.4,6.9c-13.7,6.3,3.2-0.3,8.9,5.7c7.4,3.9-5.8,20.2,1.9,16.5c5.9-4.3,35.5-14.5,15.2,4.3
		C1033.4,611.6,1035.4,599,1036.2,589.1z"/>
	<path class="st11" d="M933,470.5c5.5-5.5,100.5,12.6,84.7-9.6c3.3-12.1-114.5,18.8-108.3-11.6C872.3,467.4,909,468.5,933,470.5z"/>
	<path class="st11" d="M705.4,246.9c-8.1-7.5,11.8-129.7-52.8-5.2c3.6,13.9,23.9-27.9,34.3-29c12.1,3.6,5.5,29.1,10.8,45.2
		C700.4,248.8,695.4,248.2,705.4,246.9z M699.6,215c1.7,19-24.7-27-2.4-18.1C701.1,201.1,698.8,208.4,699.6,215z"/>
	<path class="st11" d="M868,299.4c8.3-3.5,7.1-6.4,17.5-3c10.3-28.2,10.1-0.8,10.9,2.7c21.9-68.9-101.5,68.8-87.1-8.3
		c-3.8-20-0.5,27.1,0.1,40C827.3,319.5,849.5,312.6,868,299.4z"/>
	<path class="st11" d="M895.4,379.5c15.4-2.2,34.5-0.8,49.7-3.8c0.4-3.5-8.5-10.1,3.8-11.3c7.5-2.1,25,16.5,13.8,0.4
		C966.8,351.1,839.9,388.8,895.4,379.5z"/>
	<path class="st11" d="M1010.8,702c5.6,1.9-38.3-38.8-42.5-27.9C963.3,672.4,1012.6,725.4,1010.8,702z"/>
	<path class="st11" d="M257.2,644.5c-19.4-7.2,16.9-15.9-21.4-6.1C247,674.2,240.1,646.1,257.2,644.5z"/>
	<path class="st11" d="M808.9,230.9c0.7,31.4,12.3-1-5.4-7.2c-11.2-6.4-4.3,3.9-3,34.2C802,256.6,798.8,229,808.9,230.9z"/>
	<path class="st11" d="M262.7,514.5c15.5,7.7-16.9-6.3,25.8-16.9c-1.5-2.3,58.6-3.3,46.5-15c-12.9-11.6-3.7-1.2-64.7,11.4
		C259.3,493.8,245.8,491,262.7,514.5z"/>
	<path class="st11" d="M969,635.7c5.9-3.1,5.3-2.7,16.1-8.1c36.9-27-85.9,22.3-31.1,34.4C966.2,661.4,941.4,652.1,969,635.7z"/>
	<path class="st11" d="M352.9,566.3c-14.6-17,1.6,9.7-12.8,3.6c-19.2-11.5,10-4.1-31.4,20.5c-11.8,8,15.5,7,18.8,4.7
		C324.9,579.4,352.5,580.4,352.9,566.3z"/>
	<path class="st11" d="M339,665.8c-35.4-9.4,22.6,11.2-40.6,2.8c5.2,9.2,42.5-7.6,1.7,42.2C317,731.7,303.5,697.7,339,665.8z"/>
	<path class="st11" d="M527.1,537.8c0.4,0.1,0.2,0.9,1.8,0.6C529.3,537.5,529.5,537.5,527.1,537.8z"/>
	<path class="st11" d="M531.4,639.6c0,0.3,0,0.6,0,0.6C531.5,640,531.5,639.5,531.4,639.6z"/>
	<path class="st11" d="M648.5,257.4c-41.8,7.5-37.2-52.1-57.7-44.7c-11.4-0.2,2.7-2.3,17.9,32.9c4.5,5.6,5.8,20.8,15.8,20.3
		C633.2,260.8,648.6,276.2,648.5,257.4z"/>
	<path class="st11" d="M298.5,620.4c7.7-1.6-15.8-4.6-28.8-23.4c-2.5-3,5.6-12.8-5.6-6.7c12.4,27.4,12.8,7.3-0.6,27.8
		C271.6,642.7,273.9,612.5,298.5,620.4z"/>
	<path class="st11" d="M915.6,416.7c24.8,11.7,2.1,8.4,35.3-24C926.1,399.9,959.6,362.9,915.6,416.7z"/>
	<path class="st11" d="M351.7,432.9c-38.7-33.8-7,0.8-29.6,8.4C318.4,444.1,357.4,435.1,351.7,432.9z"/>
	<path class="st11" d="M270.2,457.7c4.6,3.3,21.1-9.7,1.3-2.5C270.5,455.9,269,455.5,270.2,457.7z"/>
	<path class="st11" d="M416.1,403c-7.7-29-2.6,25.4-15.7-15.7c-6.2-5.2,7.6,9.7-18,5.8c2.8,2.9,4.1,6.7-3.5,7.2
		C370,399.3,417.3,416.1,416.1,403z"/>
	<path class="st11" d="M490.1,343.9c-3-4.8-12.6-113-27.4-85c4.2,2.3,6,34.3,11.9,72.3c-8.6,17.6-37.8-13.2-54.2-16.3
		c4.2,2.1-37.2-31.6-23.6-14.8c13.2,9.6-3.9,7.6,7.7,13.6c15.8,14.1,44.5,24.4,63,43.6c1.4,2.5,4.2,9.3,6.5,0.1
		c8.9,9.1-2.2-54.1,1.2-65.8C482.5,283.4,486.9,357.5,490.1,343.9z"/>
	<path class="st11" d="M790.5,233.1c-4.4-7.2-21,2.9-30.8,10.4c-11.5,3.2-32.3,29.1-46.3,21.3c-7.3-13.9-1.1,0.3,1.7,10.3
		c0.3,2.6-8.3,20.1,2.1,8.6c12.2-4.8,13.9-12.5,34.2-20.4c-0.9,0.4,18.5-8.3,13.6-10.2C770.9,244.9,790.4,246,790.5,233.1z"/>
	<path class="st11" d="M568.8,235.8c-13.7,14.8-4.1-5.2-5-14c-7.9,14.6-13.6,45.7-21.6,66.6C551.9,307.3,556.6,275.5,568.8,235.8z"
		/>
	<path class="st11" d="M880.6,341.2c-4.4,4-4.2,4.7-11.6,3.6C862,366.6,873.3,381.3,880.6,341.2z"/>
</g>
<g>
	<path class="st12" d="M318.3,370.7c14.5,1.3,11.9,18.7,46.5-5.5c6.9-10.8,28.5-11,18.2-27.6c-9.8-15.5-12.3-57.2-37.4-26.5
		c-7.9,10.9-25.5,19.8-22.7,38C325,352.6,306.4,371.1,318.3,370.7z"/>
	<path class="st12" d="M343.9,835.4c25.5-24.7-1.3-56.7-23.6-20.6c0-1.4-14.6,49.9,13.6,42C332.6,846.6,330.2,845.5,343.9,835.4z"/>
	<path class="st12" d="M963.9,925.5c-3.4-6.8-13.3-4.5-20.6-2.2C918.8,917.1,921.5,987.1,963.9,925.5z"/>
	<path class="st12" d="M252.9,496.6c37.8-9.2-21.1-45-10-1.3C242.7,499.7,248.5,498.1,252.9,496.6z"/>
	<path class="st12" d="M597.3,924.3c-13.7,44.8,81.3,71.4,104.9,25.1c2.1-3.8,15.2-29.3,0-29.3c-14.7,36.4-80.1,62.6-96.9,10.4
		C603.5,927.6,605.5,919.7,597.3,924.3z"/>
	<path class="st12" d="M513.7,841.7c13.2-1.9,42-19.9,7.4-20.5c-21.8,5-41.7,14.9-66.4,13.6c-22.7-1-44.6-13.5-64.6-22.7
		c-8.3,5,14.3,19.6,27.2,24.2C447.9,843.4,482.1,856.8,513.7,841.7z"/>
	<path class="st12" d="M417.4,836.3C417.4,836.3,417.4,836.3,417.4,836.3L417.4,836.3z"/>
	<path class="st12" d="M870.3,820.1c6.3-0.2,52.5-44,21.2-32c-32.4,24.8-72.5,39.9-116.1,31C773.3,843.9,850.7,828.3,870.3,820.1z"
		/>
	<path class="st12" d="M404.6,909.9c-16.8-11-72.7,0-49.2,31.8C374.3,939.9,409.2,941.1,404.6,909.9z"/>
	<path class="st12" d="M351.5,895.8c4,7.9,5.7,0.2,25-8.1C440,859.8,308.1,841.4,351.5,895.8z"/>
	<path class="st12" d="M927.8,901.8c4.9-41-45.3-8.8-49.3,12.2C884.1,927.9,919.4,916.2,927.8,901.8z"/>
	<path class="st12" d="M788,647.8c9.1,14,31-18.7,98.8,7.8C891.8,633.2,798.6,624.6,788,647.8z"/>
	<path class="st12" d="M931.9,797c1.5,8.7,20.5,30.7,25.3,8.4C947.9,794.7,946,768.6,931.9,797z"/>
	<path class="st12" d="M455.7,1023c11.9,1.2,3.3-28.9-7.4-32.4C436.5,988.5,445.9,1018.9,455.7,1023z"/>
	<path class="st12" d="M661.6,1005.6c-1.2-16.6-13.7-18.9-13.6,3.5C649.2,1028,660.6,1029.9,661.6,1005.6z"/>
	<path class="st12" d="M605.6,1003.8c-10.7-15.8-22.7,19.2-8.9,21.2C599.9,1022.2,607.8,1010.6,605.6,1003.8z"/>
	<path class="st12" d="M538.9,1016.4c19.7-0.1,0.7-24.8-2.5-1.9C536.4,1015.3,536.7,1017.1,538.9,1016.4z"/>
	<path class="st12" d="M777.3,1001.1c2.1,5.7,12.3,2.8,4.9-4.9C779.7,993.9,775,996.6,777.3,1001.1z"/>
	<path class="st12" d="M432.6,1161.9c-16.9-32.7-46.7-13.4-13.2,7.8C424.1,1171.3,433.7,1169.6,432.6,1161.9z"/>
	<path class="st12" d="M894.9,1119.2c-3.4-19.8-45.5,39.9-14.3,23.9C886.5,1136.7,894.5,1129.2,894.9,1119.2z"/>
	<path class="st12" d="M257.2,618.2c13.9-4.3-4.9-48.8-5.2-5.7C252.6,614.9,252,620.7,257.2,618.2z"/>
	<path class="st12" d="M305.6,399c-7.4-35.9-50.3,33.5-38.4,45.7C272.7,449,296.3,415.7,305.6,399z"/>
	<path class="st12" d="M907.4,329.2c1,2.5,2.4,3.7,5,6.4c0.2-2.3,14.8,21.3,19.7,12.8C934,347.1,907.9,306.8,907.4,329.2z"/>
	<path class="st12" d="M901.1,837.2c-41.9-6.6-17.7,24.7,7.8,29.6C937.5,863.3,935.6,829.1,901.1,837.2z"/>
	<path class="st12" d="M286.7,709.1c-8.8-12-13.8-25.2-19.1-39.7C237.7,649.3,283.5,735.8,286.7,709.1z"/>
	<path class="st12" d="M391.3,291.7c13.8,12.9,8.9,5.5,32-9.7c11.8-9,31.9-12.4,40.2-26.7C474.7,231.6,389.9,278.5,391.3,291.7z"/>
	<path class="st12" d="M488.3,235.5c13.3,17.7-0.9,3.8,71.8-11.5C589,193.1,496.9,224.5,488.3,235.5z"/>
	<path class="st12" d="M434,690.9c-2.9-8.9-14-4.3-22-1.7C376,683.6,414.8,758.6,434,690.9z"/>
	<path class="st12" d="M637.5,1153c13.5-6.8,17.7-97.6-23.7-62.4c-2.5,1.3-0.8,28.2-8.8,9.7c1-16.9-7.5-23.2-22.1-3.6
		c0.3-3.3-9.6,75.5,25.4,35.6c5-1.8,5.5,4.9,7.3,10c20.1,22.2-36.3-6.1-0.8,52.7C633,1194.1,612.8,1162.4,637.5,1153z"/>
	<path class="st12" d="M748.2,1116.3c12.3-13,1.7-53.7-26.9-27.2c-5.5,0.2-10.1-23.9-25-0.7c-7.5,20.8,16.8,71.1,21.2,19.3
		C726.6,1079.3,727,1130.9,748.2,1116.3z"/>
	<path class="st12" d="M469.7,1097.6c19.9,17.7,41.9-11.5,22.5-36.4C465.9,1039.4,435.6,1051.7,469.7,1097.6z"/>
	<path class="st12" d="M684,1128.9c0.8-12.7,0.4-27.2-6.9-38.8C646,1055.1,646.8,1176.7,684,1128.9z"/>
	<path class="st12" d="M800.8,1078.5c0.1,24.4,37.3,6.5,35-14.3C827.8,1045.5,798.5,1053.9,800.8,1078.5z"/>
	<path class="st12" d="M515,1104.4c-3.9,30.3,39.5,23.7,16.5-23.1C517.6,1076.8,511.6,1085.6,515,1104.4z"/>
	<path class="st12" d="M573.1,1091.6c-33.2-36-29.9,54.8-6.2,22.8C567.1,1105.1,581.9,1100.9,573.1,1091.6z"/>
	<path class="st12" d="M772.6,1105.6c9.3,3,14.6-24.9,9.4-34.4C760.3,1057.1,752.6,1096.6,772.6,1105.6z"/>
	<path class="st12" d="M737.3,693.2c32,49.7,67.4-24.5,23.4-15.4C751,677,741.6,685,737.3,693.2z"/>
	<path class="st12" d="M499.3,1140c1.4-19.4-11.4-17.2-27.8-29.4c-21-14.2-18.1,18.2-13.6,33.2C469.2,1149,501.5,1177.3,499.3,1140z
		"/>
	<path class="st12" d="M841.5,1112.4c0.4-12.2-13.6-16.6-25.3-10.9c0,0,0,0,0,0C790.3,1108.3,795.3,1177.5,841.5,1112.4z"/>
	<path class="st12" d="M816.2,1101.4C816.1,1101.4,816.1,1101.5,816.2,1101.4L816.2,1101.4z"/>
	<path class="st12" d="M719.2,1008.9c1.3,12.9,13.2,8.7,8.3-6.4C723.7,997.5,717.9,1000.2,719.2,1008.9z"/>
	<path class="st12" d="M654.5,1193.3c-3.6-7.6-1.4-16.6-4.3-24.7C631.3,1145,632,1223,654.5,1193.3z"/>
	<path class="st12" d="M588.6,1172.4c1-18.5-19.6-38.4-48.4-35c-6.2-0.8-13-11.5-23.7-2.2c-7.9,7.1-2,53.9,12.8,30
		c0.7-3,7-5.1,8.6,0.2c1.8,18.6,11.9,26.6,19.7,0.9C563.6,1151.8,582.1,1210.4,588.6,1172.4z"/>
	<path class="st12" d="M461.4,416.5c-35.4,4.9-29.1,9.3,7.2,11.4c11.2,1.6,27.2,13.5,37.8,6.3C509.7,410.9,479.2,414.4,461.4,416.5z
		"/>
	<path class="st12" d="M564.1,344.7c-2.5-1.3-38.3,0.7-30.6,13.4C536.2,358.8,598.4,354.6,564.1,344.7z"/>
	<path class="st12" d="M588.1,347.8c0.8,7.5,15.5,12.1,8.1-2.8C594.5,341.5,586.6,339.5,588.1,347.8z"/>
	<path class="st12" d="M736.1,1153c1.5-21.1-30.8-18.2-25.7,5.5C709.7,1168.4,736.7,1189,736.1,1153z"/>
	<path class="st12" d="M761.4,1143.3c-1.6-14.5-20-13.6-15.2,6.7C749.5,1161.9,762.6,1160.1,761.4,1143.3z"/>
	<path class="st12" d="M790.2,1127.9c-3.2-13.5-22.4-16-18.9,6.6C777.1,1149.8,788.9,1154.7,790.2,1127.9z"/>
	<path class="st12" d="M678.9,1178.6c3-10.1-15.4-26.7-19.5-9.6C656,1183,679.9,1208.3,678.9,1178.6z"/>
	<path class="st12" d="M703.8,1169.3c-0.2-6.9-5.8-26.2-18.6-13.8C677.1,1167,702.7,1199.2,703.8,1169.3z"/>
	<path class="st12" d="M754.8,391.2c1.5,0.2,0.2-3.4-0.8-0.8C754.2,390.9,754,390.9,754.8,391.2z"/>
</g>
</svg>
